<?xml version="1.0" encoding="UTF-8" standalone="no"?>
<svg
   xmlns:dc="http://purl.org/dc/elements/1.1/"
   xmlns:cc="http://creativecommons.org/ns#"
   xmlns:rdf="http://www.w3.org/1999/02/22-rdf-syntax-ns#"
   xmlns:svg="http://www.w3.org/2000/svg"
   xmlns="http://www.w3.org/2000/svg"
   xmlns:sodipodi="http://sodipodi.sourceforge.net/DTD/sodipodi-0.dtd"
   xmlns:inkscape="http://www.inkscape.org/namespaces/inkscape"
   version="1.0"
   width="1280.000000pt"
   height="962.000000pt"
   viewBox="0 0 1280.000000 962.000000"
   preserveAspectRatio="xMidYMid meet"
   id="svg382"
   sodipodi:docname="304521.svg"
   inkscape:version="1.0.1 (3bc2e813f5, 2020-09-07)">
  <defs
     id="defs386" />
  <sodipodi:namedview
     pagecolor="#ffffff"
     bordercolor="#666666"
     borderopacity="1"
     objecttolerance="10"
     gridtolerance="10"
     guidetolerance="10"
     inkscape:pageopacity="0"
     inkscape:pageshadow="2"
     inkscape:window-width="1600"
     inkscape:window-height="851"
     id="namedview384"
     showgrid="false"
     inkscape:zoom="0.51689189"
     inkscape:cx="790.15998"
     inkscape:cy="697.84664"
     inkscape:window-x="0"
     inkscape:window-y="0"
     inkscape:window-maximized="1"
     inkscape:current-layer="svg382" />
  <metadata
     id="metadata2">
Created by potrace 1.15, written by Peter Selinger 2001-2017
<rdf:RDF>
  <cc:Work
     rdf:about="">
    <dc:format>image/svg+xml</dc:format>
    <dc:type
       rdf:resource="http://purl.org/dc/dcmitype/StillImage" />
  </cc:Work>
</rdf:RDF>
</metadata>
  <g
     id="g1537"
     style="fill:#0fa7f3;fill-opacity:1">
    <path
       d="m 138.5,142.6 c -1.6,1.4 -4.5,3.2 -6.2,4 -1.8,0.8 -3.3,1.8 -3.3,2.3 0,0.5 1.6,3.2 3.5,6 3.2,4.6 3.3,5.1 1.4,4.8 -4.2,-0.4 -4.6,2.7 -1.1,9.5 3.2,6.3 4.1,11.1 2.2,12.3 -0.5,0.3 -2.8,-2.4 -5.1,-6.1 -3.3,-5.2 -5.2,-7.1 -8.4,-8.5 -3.3,-1.5 -4.4,-2.6 -4.9,-5 -0.7,-3.8 -3.5,-3.6 -5.4,0.5 -1.2,2.5 -1.8,2.7 -4.7,2.2 -5.6,-1.1 -8.1,3 -5,8.4 1.9,3.3 1.9,5 0,5 -2.2,0 -1.8,3.7 0.4,5 1.1,0.5 3.6,1 5.5,1 3.1,0 3.7,0.4 4.2,2.7 0.9,3.7 2,4.3 7.6,4.3 7.9,0 7.6,3.7 -0.3,4.7 -5.1,0.7 -7.1,1.9 -6.7,4.2 0.5,2.9 -1,3.9 -5,3.4 -2.8,-0.4 -4.3,0 -5.5,1.2 -2.1,2 -2.2,3.5 -0.2,3.5 1.9,0 1.9,2.1 0,4.6 -0.8,1 -1.5,2.9 -1.5,4.2 0,3 4.5,7.5 6.8,6.8 1.2,-0.4 2.1,0.1 2.7,1.7 1.6,3.5 4.7,2.8 6.8,-1.5 1.6,-3.2 2.2,-3.7 4.3,-3.2 3.3,0.8 5,-0.8 8.4,-8.3 2.2,-4.8 3.4,-6.3 4.9,-6.3 3.1,0 2.7,3.4 -1.1,10.7 -2.7,5.1 -3.1,6.6 -2.2,8 0.7,1 1.9,1.7 2.8,1.7 2.1,-0.2 2,0 -0.9,4.4 -1.4,2 -2.5,4.6 -2.5,5.8 0,2.4 2.4,4.9 3.9,4 0.5,-0.4 2.2,0.9 3.8,2.9 1.5,1.9 3.3,3.5 3.9,3.5 0.5,0 2,-1.4 3.2,-3 1.8,-2.3 3,-3 5.8,-3 5,0 5.3,-2.2 1,-8.4 -2,-2.9 -3.6,-5.5 -3.6,-5.8 0,-0.3 1.1,-0.3 2.4,-0.1 4.8,1 4.6,-3.9 -0.4,-10.2 -3.2,-4 -4.2,-10.5 -1.7,-10.5 1.8,0 5,3.6 7.2,8 1,1.9 2.4,4.3 3.3,5.3 1.4,1.5 1.8,1.6 3.7,0.3 2.5,-1.7 4.5,-0.5 4.5,2.6 0,1.9 3.3,5.8 5,5.8 0.6,0 1.5,-1.1 2,-2.5 0.6,-1.7 2,-2.7 4,-3.2 3.9,-0.7 5,-2.8 5,-9.2 0,-6.2 -1.7,-10.1 -4.3,-10.1 -1.1,0 -3.4,-1.6 -5.2,-3.6 -3.1,-3.3 -3.5,-3.5 -8.1,-2.9 -5.9,0.8 -10.7,-0.7 -10.2,-3.2 0.4,-2.4 4.2,-3.2 11.9,-2.6 l 6.6,0.6 -0.5,-3.3 c -0.5,-3.7 0.8,-5 5.4,-5 5.2,0 7.1,-3.4 2.9,-5 l -2.5,-1 2,-2 c 3.8,-3.8 1.8,-10.2 -3.5,-11.2 -1.1,-0.2 -2.5,-1.4 -3.2,-2.8 -1.1,-2.3 -1.7,-2.6 -4.1,-2.2 -0.5,0.1 -1.7,2 -2.7,4.2 -1.7,3.7 -2.6,4.5 -4.9,4.1 -3.3,-0.7 -5.5,1.2 -7,5.7 -1.8,5.4 -4.8,9.2 -7.2,9.2 -2.1,0 -1.5,-4.2 1.6,-12.5 4.1,-11.2 3.7,-21.5 -0.9,-21.5 -1.2,0 -2.1,-1 -2.6,-2.7 -1.4,-5.8 -3.5,-6.5 -8,-2.7 z"
       id="path68"
       style="fill:#0fa7f3;stroke:none;stroke-width:0.1;fill-opacity:1" />
  </g>
  <g
     id="g1611"
     style="fill:#0fa7f3;fill-opacity:1">
    <path
       d="m 847.2,3.2 c -2.3,2.5 -5.5,9.6 -7.2,15.9 -1,3.7 -0.8,4.7 2,10.6 5.3,11.4 0.5,10.7 -8.1,-1 -5.6,-7.6 -7.2,-8.1 -10,-2.7 -3.5,6.4 -2.6,10.7 4.2,21.1 3.4,5.1 6.3,9.9 6.6,10.6 1,2.6 -1.6,1.2 -7,-3.7 -3,-2.8 -5.7,-5 -6.1,-5 -0.9,0 -4.6,7.8 -4.6,9.8 0,2.9 11.9,19.1 15.2,20.8 4.1,2.1 17.2,2 20.5,-0.1 2.6,-1.8 5.7,-7.9 5,-10 -0.3,-0.7 -3.4,-1.5 -7.3,-1.8 -13.5,-1.3 -9.6,-4.5 6.7,-5.6 6.6,-0.5 11.4,-1.3 12.4,-2.1 4.3,-3.6 6.1,-12.2 2.8,-13.5 -1,-0.3 -5.5,-0.9 -10,-1.2 -12.7,-0.9 -14.1,-3.5 -2.9,-5.3 3.2,-0.5 6.5,-1.5 7.4,-2.2 2.4,-2 8.2,-15.3 8.2,-18.8 0,-3.9 -4,-11 -8.6,-15 -3.1,-2.7 -4.1,-3 -10.3,-3 -5.7,0 -7.1,0.3 -8.9,2.2 z"
       id="path6"
       style="fill:#0fa7f3;stroke:none;stroke-width:0.1;fill-opacity:1" />
    <path
       d="m 747.5,11.2 c -3.7,2.9 -7.5,11.3 -7.5,16.7 0,4.8 4,12.8 8.4,17 2,1.9 3.5,2.4 7.3,2.2 5.6,-0.2 8.3,0.6 8.3,2.3 0,2.4 -2.4,3.4 -10.5,4.5 -10.7,1.5 -11.5,2.5 -8,8.9 3.6,6.6 5.5,7.2 17.7,5.9 5.3,-0.5 10.4,-0.7 11.4,-0.3 3,1.1 -0.5,3.5 -6.4,4.5 -2.9,0.4 -5.5,1.1 -5.8,1.4 -1.1,1.1 0.5,5.5 3,8.4 2.1,2.5 3.1,2.8 7.8,2.7 12.5,-0.3 18.2,-4.2 24.6,-16.6 3.8,-7.5 4,-10.7 0.9,-13.6 -3.4,-3.3 -5.1,-2.7 -9.2,2.8 -6.7,9.2 -7.5,5.5 -1.4,-7.1 2.3,-4.6 4.5,-9.7 5,-11.3 1.1,-3.7 -0.3,-9.4 -3.2,-13 -2.6,-3.3 -3.9,-2.5 -7.6,4.8 -3.8,7.5 -8.2,13.6 -9.8,13.6 -2,0 -1.9,-0.6 1,-10 l 2.6,-8 -2,-4.5 C 771.2,16 767.3,11.3 763.8,10.1 758.4,8.2 750.6,8.7 747.5,11.2 Z"
       id="path10"
       style="fill:#0fa7f3;stroke:none;stroke-width:0.1;fill-opacity:1" />
    <path
       d="m 806.1,68.3 c -3.1,5.1 -7.1,16.3 -7.1,20 0,3.2 1.5,5.7 3.2,5.7 0.5,0 2.7,-1.9 4.9,-4.3 l 3.9,-4.2 3.1,3.3 c 1.6,1.8 3.7,3.2 4.7,3 2.8,-0.5 3.7,-5.1 2.1,-10 -1.8,-5.5 -8.9,-16.2 -11,-16.6 -1,-0.2 -2.5,1.1 -3.8,3.1 z"
       id="path26"
       style="fill:#0fa7f3;stroke:none;stroke-width:0.1;fill-opacity:1" />
    <path
       d="m 889.5,85.1 c -5.9,0.9 -7.5,2.7 -10.5,10.7 -3.3,9.3 -5.2,13 -7.1,14.8 -1.8,1.6 -1.9,1.6 -1.9,0 0,-1 0.8,-4.6 1.7,-8 1.9,-7.3 1.4,-9.6 -2.1,-9.6 -6.1,0 -15,13.6 -15.1,23 0,5.2 5.1,16.9 9.2,21.2 2.1,2.2 3.6,2.8 7,2.8 3.8,0 4.3,-0.3 4.3,-2.3 0,-1.2 -0.9,-4.2 -2,-6.6 -4.4,-9.5 -1.6,-10.8 3.9,-1.9 9.2,14.8 9.1,14.7 13,15.8 4.1,1.1 10.1,0.4 10.1,-1.2 0,-0.6 -1.6,-4.5 -3.6,-8.7 -3.8,-8.2 -5.4,-14.1 -3.6,-14.1 0.6,0 3.4,2.7 6.3,6 4.9,5.7 5.4,6 9.8,6 10.2,0 15.7,-3.7 19.1,-12.7 2.6,-7 2.5,-9.3 -0.5,-15.3 -3.2,-6.3 -6.6,-8.1 -17,-8.7 -9.1,-0.6 -9,-0.6 -13.5,7.6 -2.7,4.9 -6,6.7 -6,3.3 0,-1.1 1.4,-6 3.1,-10.9 1.7,-4.8 3.3,-9.6 3.6,-10.6 0.6,-1.9 -0.2,-2 -8.2,-0.6 z"
       id="path28"
       style="fill:#0fa7f3;stroke:none;stroke-width:0.1;fill-opacity:1" />
    <path
       d="m 840.4,89.1 c -6.9,1.1 -10.1,2.5 -11.2,4.6 -1.4,2.7 0.3,6.2 3.5,6.9 5.5,1.2 5.4,1 5.1,7.6 -0.3,6.1 -0.2,6.3 2.3,6.6 2,0.2 3.4,-0.5 5.7,-3.3 3.4,-4.2 8.9,-19.3 7.9,-21.8 -0.7,-1.9 -4.6,-2.1 -13.3,-0.6 z"
       id="path30"
       style="fill:#0fa7f3;stroke:none;stroke-width:0.1;fill-opacity:1" />
    <path
       d="m 769.8,94.1 c -2.4,1.4 -2.2,4.4 0.6,10.4 4.2,9.1 12.7,15.8 15.9,12.6 0.9,-0.9 0.7,-2.4 -0.6,-6.1 -2,-5.6 -1.7,-7 1.8,-7 4.1,0 5.5,-1.1 5.5,-4.2 0,-2.4 -0.7,-3.2 -4.2,-4.8 -4.7,-2.1 -16,-2.7 -19,-0.9 z"
       id="path36"
       style="fill:#0fa7f3;stroke:none;stroke-width:0.1;fill-opacity:1" />
    <path
       d="m 726.3,95.6 c -2,0.9 -1.6,2.7 2.7,11.5 6.2,12.8 5.1,16.7 -2.5,8.5 -4.2,-4.6 -8.9,-6.6 -15.5,-6.6 -5.9,0 -10.1,2.9 -13.2,9 -3.7,7.5 -3.7,13.2 0.1,19.1 4.9,7.7 7.5,9.4 13.6,9.2 8.2,-0.3 11.9,-2.3 16,-8.8 2.5,-3.8 4.2,-5.5 5.3,-5.3 2.3,0.5 1.9,3.4 -2.3,14.6 -1.9,5.1 -3.5,9.5 -3.5,9.9 0,1.3 12.2,-0.6 13.9,-2.2 1,-0.9 3.5,-5.5 5.5,-10.3 4.5,-10.9 7.4,-15.8 8.7,-14.5 0.6,0.6 0.1,3.6 -1.2,8 -2.7,8.8 -2.2,10.3 2.9,10.3 5.1,0 7.5,-2.7 10.7,-12.1 3.3,-9.5 3.3,-12.9 0,-21.2 -3.8,-9.4 -8,-13.7 -13.3,-13.7 -2.2,0 -4.4,0.4 -4.7,1 -0.3,0.5 0.8,4.2 2.5,8.2 3.2,7.6 3.6,9.8 2.1,9.8 -1.3,0 -5,-5 -9.9,-13.5 -2.2,-3.9 -4.9,-7.8 -5.9,-8.8 -2,-1.7 -9.8,-3.1 -12,-2.1 z"
       id="path40"
       style="fill:#0fa7f3;stroke:none;stroke-width:0.1;fill-opacity:1" />
    <path
       d="m 809.2,97.2 c -0.5,0.7 -1.2,2.3 -1.6,3.4 -1.1,3.6 -4.2,5.5 -10,6.1 -3.7,0.4 -5.6,1 -5.6,1.9 0,0.8 1,4.3 2.2,7.9 2,6.4 2.1,6.8 0.5,11.9 -2.6,8.1 -2.5,8.2 4.1,8.9 7.3,0.6 9.6,2 12.9,7.6 l 2.6,4.5 2.3,-4.9 c 3.4,-6.9 5.9,-9.2 11,-10 2.4,-0.3 4.5,-0.9 4.8,-1.3 0.2,-0.4 -0.2,-3.6 -1,-7.2 -0.9,-4.2 -1.2,-8.9 -0.8,-13.3 l 0.7,-6.7 h -5.5 c -5.8,0 -7.2,-0.9 -11.1,-7.3 -1.9,-2.9 -3.9,-3.5 -5.5,-1.5 z"
       id="path42"
       style="fill:#0fa7f3;stroke:none;stroke-width:0.1;fill-opacity:1" />
    <path
       d="m 838.1,123.9 c -1.2,0.8 -1.1,1.7 0.8,6.1 1.2,2.9 1.9,5.5 1.6,5.8 -0.4,0.4 -2.5,1.6 -4.8,2.7 -4.9,2.3 -5.6,4.2 -2.8,7.6 1.8,2.3 2.5,2.4 12.5,2.3 6.5,0 11.1,-0.5 11.8,-1.2 0.8,-0.8 0.1,-3.2 -2.9,-9.4 -4.4,-8.9 -7.1,-12.4 -11,-13.9 -3,-1.1 -3.4,-1.1 -5.2,0 z"
       id="path58"
       style="fill:#0fa7f3;stroke:none;stroke-width:0.1;fill-opacity:1" />
    <path
       d="m 783.3,127.7 c -3.4,1.2 -4.5,2.2 -6.4,6.1 -3.5,7.4 -8,18.5 -7.6,18.8 0.2,0.2 5.2,0.4 11.2,0.5 10.7,0.2 10.9,0.1 13.2,-2.6 3.2,-3.6 2.6,-6.6 -1.6,-8.6 -4.5,-2.1 -5.2,-3.8 -4.2,-9.5 0.5,-2.7 0.7,-5.2 0.3,-5.5 -0.4,-0.4 -2.6,0 -4.9,0.8 z"
       id="path60"
       style="fill:#0fa7f3;stroke:none;stroke-width:0.1;fill-opacity:1" />
    <path
       d="m 819,151 c -3,4.8 -4.7,5 -8.5,1 -3.4,-3.6 -4.9,-3.7 -6.9,-0.8 -2.8,3.9 -1.9,7.1 5,17.7 l 6.7,10.2 2.5,-4.3 c 7.7,-13.5 9.5,-19.7 6.9,-24.7 -1.8,-3.7 -3,-3.5 -5.7,0.9 z"
       id="path70"
       style="fill:#0fa7f3;stroke:none;stroke-width:0.1;fill-opacity:1" />
    <path
       d="m 843,156.9 c -7,1.4 -10,4.4 -15.9,15.6 -3.6,7 -3.8,9.2 -1.1,14.5 3.3,6.5 4.2,6.3 10,-3.4 1.9,-3.1 3.8,-5.6 4.3,-5.6 1.9,0 -0.4,6.7 -5.5,16.8 l -5.3,10.3 3,5.7 c 1.7,3.1 3.7,5.7 4.5,5.7 0.8,0 3.3,-2.9 5.6,-6.5 6.4,-10 8,-11.7 9.5,-10.3 1,1 0.9,2.5 -0.4,7.3 -0.9,3.3 -1.7,7 -1.7,8.3 0,3.6 5.7,14.3 9.3,17.3 2.6,2.2 3.7,2.5 7.1,2 8.3,-1.4 14.1,-6.7 17.3,-15.7 1.7,-5 1.1,-8.7 -2.4,-14.9 -4.7,-8.3 -5.8,-9 -13.5,-9 -5,0 -6.8,-0.3 -6.8,-1.3 0,-2.8 3.9,-4.8 11.2,-5.9 4.1,-0.6 7.8,-1.7 8.5,-2.5 1.6,-2 0.1,-6 -3.8,-10.2 l -3,-3.4 -6.7,0.9 c -9.3,1.1 -16.6,1.1 -17.2,-0.1 -0.3,-0.6 2.4,-1.9 6,-3.1 4,-1.3 6.6,-2.7 6.8,-3.7 0.5,-2.5 -2.7,-7.7 -5.4,-8.7 -2.8,-1.1 -9.1,-1.1 -14.4,-0.1 z"
       id="path74"
       style="fill:#0fa7f3;stroke:none;stroke-width:0.1;fill-opacity:1" />
    <path
       d="m 774.3,162.7 c -3.6,0.5 -7.3,4.4 -7.3,7.5 0,1.4 1.6,2.6 6,4.5 7.4,3.2 6.4,4.3 -4.2,4.3 -10.2,0 -12.3,1.1 -15.9,8.2 -1.6,3.1 -2.9,6.1 -2.9,6.6 0,0.5 3.3,1.2 7.3,1.6 13.7,1.2 17.4,3.5 8.8,5.6 -6.2,1.5 -11.1,6.5 -15.2,15.7 l -2.9,6.3 4.9,7.3 c 2.7,4 6.1,7.8 7.5,8.5 1.5,0.7 5.3,1.2 8.6,1.2 7.4,0 9.7,-1.9 13.5,-11.2 3.1,-7.7 3,-11.5 -0.5,-19.5 -1.3,-2.9 -2.1,-5.6 -1.7,-5.9 1.2,-1.3 5.8,2.7 10.4,9.2 2.6,3.5 5.4,6.4 6.3,6.4 2.1,0 6,-6.9 6,-10.7 0,-1.9 -2.3,-6.7 -6.5,-13.4 -9,-14.4 -8.8,-16.8 0.5,-7.4 3,3 5.7,5.5 6.1,5.5 1.5,0 4.1,-9 3.5,-12 -0.7,-3.8 -7.9,-14.5 -11,-16.5 -2.4,-1.6 -15.4,-2.7 -21.3,-1.8 z"
       id="path76"
       style="fill:#0fa7f3;stroke:none;stroke-width:0.1;fill-opacity:1" />
  </g>
  <g
     id="g1569"
     style="fill:#0fa7f3;fill-opacity:1">
    <path
       d="m 313,0.7 c -3.9,1.4 -6,4.6 -6,9.1 0,3.7 0.6,5 3.4,7.8 4.5,4.5 8.4,4.6 12,0.3 2.1,-2.4 2.6,-4.1 2.6,-8.4 0,-4.6 -0.4,-5.6 -2.6,-7.4 -2.6,-2 -6.2,-2.6 -9.4,-1.4 z"
       id="path4"
       style="fill:#0fa7f3;stroke:none;stroke-width:0.1;fill-opacity:1" />
    <path
       d="m 431.2,6.5 c -3.9,4.4 -4.9,9.2 -2.8,13.3 3.4,6.5 13.7,6.1 16.6,-0.7 C 447.5,13 442.2,3 436.5,3 c -1.4,0 -3.6,1.4 -5.3,3.5 z"
       id="path8"
       style="fill:#0fa7f3;stroke:none;stroke-width:0.1;fill-opacity:1" />
    <path
       d="m 329,28 c -3.6,3.9 -5.3,5 -7.6,5 -3.7,0 -5.4,1.6 -5.4,5 0,5.7 7.9,8.1 15.1,4.6 4.1,-1.9 8.9,-8.8 8.9,-12.7 0,-2.5 -3.9,-7 -5.9,-6.9 -0.3,0.1 -2.6,2.3 -5.1,5 z"
       id="path12"
       style="fill:#0fa7f3;stroke:none;stroke-width:0.1;fill-opacity:1" />
    <path
       d="m 412.7,29.5 c -3.3,3.2 2.9,13.7 10.4,17.5 7.3,3.8 11.9,1.9 11.9,-4.9 0,-4.4 -1.1,-5.5 -5.9,-6.5 -1.8,-0.3 -5.1,-2.2 -7.2,-4.1 -4.2,-3.8 -6.9,-4.4 -9.2,-2 z"
       id="path14"
       style="fill:#0fa7f3;stroke:none;stroke-width:0.1;fill-opacity:1" />
    <path
       d="m 344.3,37.4 c -1.7,1.4 -4,4.6 -5.1,7 -2.3,4.8 -4.4,5.6 -15.2,5.6 -3.1,0 -6.1,0.5 -6.8,1.2 -1.6,1.6 -1.5,9.3 0.1,10.6 2,1.6 10.4,2.4 17.2,1.7 8,-0.9 9.5,-2.3 16.1,-14.9 4,-7.7 4.7,-9.9 3.8,-11.3 -1.8,-2.9 -6.7,-2.8 -10.1,0.1 z"
       id="path16"
       style="fill:#0fa7f3;stroke:none;stroke-width:0.1;fill-opacity:1" />
    <path
       d="m 400,37.3 c -3.5,1.8 -3.1,4.5 2.8,17.9 l 4.9,11.3 12.2,-0.2 C 433.2,66.2 435,65.5 435,61 435,57.2 433.3,56.1 426.1,55.3 417.6,54.5 414.3,52 410,43.5 406.3,36 404.5,34.9 400,37.3 Z"
       id="path18"
       style="fill:#0fa7f3;stroke:none;stroke-width:0.1;fill-opacity:1" />
    <path
       d="m 359.6,45.6 c -1.3,1.5 -5.1,7.3 -8.3,13 l -5.8,10.3 -11,0.1 c -6,0 -12.7,0.5 -14.7,1.1 -3.4,0.9 -3.8,1.3 -3.8,4.3 0,1.9 0.6,3.8 1.3,4.4 1.1,0.9 23.7,3.5 29.6,3.4 3.5,0 5.3,-2.3 14.6,-18.7 l 8.5,-15 -2.3,-1.8 c -4.8,-3.8 -5.5,-3.9 -8.1,-1.1 z"
       id="path20"
       style="fill:#0fa7f3;stroke:none;stroke-width:0.1;fill-opacity:1" />
    <path
       d="m 385.5,45.7 c -2.8,2.7 -1.1,9.5 5.9,23.9 l 6.4,13.1 9.3,1.1 c 9.4,1.1 15,1.5 22.2,1.3 3.1,-0.1 3.9,-0.6 4.8,-2.8 1.5,-4 -0.2,-7 -4.8,-8.2 -2.1,-0.5 -8.8,-1.3 -14.9,-1.7 l -11,-0.6 -3.5,-8.6 c -6,-15.1 -10.9,-21 -14.4,-17.5 z"
       id="path22"
       style="fill:#0fa7f3;stroke:none;stroke-width:0.1;fill-opacity:1" />
    <path
       d="m 373.7,60.3 c -2.5,3.9 -9.8,21.4 -10.4,25 -0.5,3.2 3.7,17.5 8.2,28.2 l 1.7,4 3,-5.9 c 6.5,-12.8 9.1,-20.7 8.5,-25.8 -0.6,-4.9 -7.2,-25.7 -8.6,-27.1 -0.4,-0.4 -1.5,0.3 -2.4,1.6 z"
       id="path24"
       style="fill:#0fa7f3;stroke:none;stroke-width:0.1;fill-opacity:1" />
    <path
       d="m 319,91.3 c 0,1.7 8.3,15.1 12.7,20.5 4.9,6 11.6,9.1 21.2,9.9 11.3,0.8 11.8,0.5 8.5,-5.9 -5.2,-10.4 -11.3,-18.5 -15,-20.3 C 343.3,94 324.2,90 320.3,90 c -0.7,0 -1.3,0.6 -1.3,1.3 z"
       id="path32"
       style="fill:#0fa7f3;stroke:none;stroke-width:0.1;fill-opacity:1" />
    <path
       d="m 304.3,93.5 c -3.5,2.4 -2.9,5.6 3.4,19.3 l 5.6,12.4 -6.7,13.6 c -3.6,7.5 -6.6,14.4 -6.6,15.3 0,2.4 3.6,5.2 5.7,4.4 1,-0.3 2.8,-1.9 4,-3.4 3,-3.8 14.2,-24 15,-26.9 0.3,-1.5 -0.5,-5 -2.1,-9.1 -4.3,-10.5 -13,-26.6 -14.6,-26.9 -0.8,-0.1 -2.5,0.5 -3.7,1.3 z"
       id="path34"
       style="fill:#0fa7f3;stroke:none;stroke-width:0.1;fill-opacity:1" />
    <path
       d="m 407.9,96.4 c -7,1.5 -9.8,3.3 -14.8,9.6 -8.4,10.6 -12.4,20.5 -7.6,18.6 0.9,-0.3 5.7,-1 10.8,-1.6 12.7,-1.5 13.1,-1.7 16.6,-4.6 3.3,-2.8 13.4,-17.5 14.6,-21.2 0.6,-2.1 0.5,-2.2 -6.7,-2.1 -4,0 -9.8,0.6 -12.9,1.3 z"
       id="path38"
       style="fill:#0fa7f3;stroke:none;stroke-width:0.1;fill-opacity:1" />
    <path
       d="m 436.8,102 c -1.9,2.1 -6.5,9.4 -10.2,16.1 l -6.8,12.2 4.7,10.4 c 5.7,12.2 12.3,22.7 14.8,23.1 1,0.2 2.5,-0.2 3.3,-0.9 2.2,-1.8 1.2,-5.9 -4.7,-19.7 -2.7,-6.5 -4.9,-12 -4.9,-12.5 0,-0.4 3.2,-6.5 7,-13.5 3.9,-7 7,-13.7 7,-14.9 0,-1.5 -0.9,-2.4 -3.1,-3.2 -1.8,-0.6 -3.3,-1.1 -3.5,-1.1 -0.1,0 -1.8,1.8 -3.6,4 z"
       id="path44"
       style="fill:#0fa7f3;stroke:none;stroke-width:0.1;fill-opacity:1" />
    <path
       d="m 289.1,103.9 -2.4,1.8 3.4,9.6 3.3,9.5 -3.7,9.1 c -2,5 -3.7,9.5 -3.7,10 0,1.8 4.3,5.1 6.6,5.1 1.9,0 3.2,-1.8 7.3,-10.1 6.1,-12 6.3,-15 2.1,-24.4 -5.5,-12.3 -8,-14.4 -12.9,-10.6 z"
       id="path46"
       style="fill:#0fa7f3;stroke:none;stroke-width:0.1;fill-opacity:1" />
    <path
       d="m 451.7,109.4 c -1.3,1.3 -4.6,6.9 -7.4,12.3 l -5.1,9.8 4.4,10 c 5.3,11.7 7.1,14 10.8,13.1 4.5,-1.1 4.9,-3.7 2,-11.8 -4.1,-11.4 -4.1,-11.2 0.6,-20.9 4.3,-8.8 4.4,-8.8 2.4,-11 -3.5,-3.9 -5.2,-4.2 -7.7,-1.5 z"
       id="path48"
       style="fill:#0fa7f3;stroke:none;stroke-width:0.1;fill-opacity:1" />
    <path
       d="m 274.5,112.3 -2.8,2.4 1.8,5.1 c 1.8,4.9 1.8,5.4 0.2,8.7 -2.5,5.2 -2.2,8.3 0.8,9.7 2.1,1 3,0.8 5.3,-0.9 3.1,-2.3 7,-7.7 7.8,-10.8 0.3,-1.4 -0.8,-4.9 -2.8,-9.1 -3.8,-7.9 -5.9,-8.9 -10.3,-5.1 z"
       id="path50"
       style="fill:#0fa7f3;stroke:none;stroke-width:0.1;fill-opacity:1" />
    <path
       d="m 248.4,115.2 c -2.7,1.3 -4.4,4.9 -4.4,9.5 0,2.8 0.8,4.4 3.9,7.4 4.4,4.4 5.8,4.7 9.3,1.9 3.8,-2.9 6.1,-8.5 5.3,-12.6 -1,-5.8 -8.4,-9 -14.1,-6.2 z"
       id="path52"
       style="fill:#0fa7f3;stroke:none;stroke-width:0.1;fill-opacity:1" />
    <path
       d="m 466.3,117.8 c -1.7,1.1 -7.3,12.1 -7.3,14.3 0,1.1 1.3,4.9 2.9,8.4 3.3,7.2 4.5,7.8 9.8,4.5 l 3.2,-1.9 -1.4,-4.2 c -1.9,-5.3 -1.9,-7.7 0.1,-12.5 l 1.6,-3.8 -3.1,-2.8 c -3.3,-3 -3.9,-3.2 -5.8,-2 z"
       id="path54"
       style="fill:#0fa7f3;stroke:none;stroke-width:0.1;fill-opacity:1" />
    <path
       d="m 485.9,125.9 c -3.3,3.4 -3.7,6.6 -1.3,11.7 2.7,5.6 8.8,7.9 13.1,4.9 4.9,-3.4 5.1,-15.9 0.3,-18.5 -3.8,-2 -9,-1.2 -12.1,1.9 z"
       id="path56"
       style="fill:#0fa7f3;stroke:none;stroke-width:0.1;fill-opacity:1" />
    <path
       d="m 342,134.9 c -6.3,1.3 -9.7,3.9 -15.9,12.1 -6.2,8.2 -7.9,11.9 -6.5,14.1 1,1.7 18.3,0.5 22.8,-1.6 6.1,-2.9 21.7,-21.9 20.2,-24.4 -0.8,-1.2 -14.9,-1.3 -20.6,-0.2 z"
       id="path62"
       style="fill:#0fa7f3;stroke:none;stroke-width:0.1;fill-opacity:1" />
    <path
       d="m 383.5,137.2 c 1.2,3.9 9.8,17.9 13.5,21.9 3.4,3.9 3.7,3.9 17.3,6.3 7.5,1.3 13.7,2.1 13.7,1.9 0,-0.9 -12.9,-21.7 -14.8,-23.9 -4.3,-5.1 -13.9,-8.3 -25,-8.4 -5.1,0 -5.3,0.1 -4.7,2.2 z"
       id="path64"
       style="fill:#0fa7f3;stroke:none;stroke-width:0.1;fill-opacity:1" />
    <path
       d="m 369,146.7 c -8.7,20.6 -8.9,24 -2.8,41.9 2.3,6.8 4.5,12.4 4.8,12.4 0.3,0 2.7,-5.5 5.5,-12.3 4.4,-10.8 5,-13 5,-19.7 0,-6.3 -0.6,-9.2 -3.9,-18 -2.1,-5.8 -4.2,-10.9 -4.6,-11.3 -0.4,-0.5 -2.2,2.7 -4,7 z"
       id="path66"
       style="fill:#0fa7f3;stroke:none;stroke-width:0.1;fill-opacity:1" />
    <path
       d="m 314.2,174.2 c -1.6,1.6 -1.5,6.3 0.1,7.6 0.6,0.5 5.5,1.3 10.7,1.7 5.2,0.3 11,1.4 12.8,2.2 3.9,1.8 7.4,6.7 13,18 2.3,4.4 4.7,8.3 5.4,8.6 1.8,0.6 6.4,-1.9 7.2,-4 0.5,-1.1 -2,-7.4 -7.1,-17.9 l -7.8,-16.1 -4.4,-0.7 c -7.8,-1.1 -28.6,-0.7 -29.9,0.6 z"
       id="path78"
       style="fill:#0fa7f3;stroke:none;stroke-width:0.1;fill-opacity:1" />
    <path
       d="m 389.8,183.1 c -10.1,19.9 -12.5,27.3 -9.5,29.8 3.5,2.8 7,-1 16,-17.4 l 4.4,-8 4.4,0.1 c 2.4,0 8.6,0.4 13.7,0.9 10.7,0.9 11.2,0.7 11.2,-6.1 0,-6.5 -1,-6.8 -19.6,-7.3 l -16.3,-0.3 z"
       id="path80"
       style="fill:#0fa7f3;stroke:none;stroke-width:0.1;fill-opacity:1" />
    <path
       d="m 313.2,191.6 c -2.8,1.9 -2.9,6.5 -0.2,8.9 1.4,1.3 4.3,2 9.4,2.4 4.2,0.4 8.1,1.3 9.1,2.1 1,0.8 3.1,4.2 4.6,7.6 3.8,8.3 5.1,9.3 9.5,6.9 4.5,-2.4 4.4,-4.2 -0.9,-14.5 -5,-9.6 -6.9,-11.4 -15.2,-13.5 -7.6,-1.9 -13.5,-1.9 -16.3,0.1 z"
       id="path84"
       style="fill:#0fa7f3;stroke:none;stroke-width:0.1;fill-opacity:1" />
    <path
       d="m 409.2,196 c -2.9,0.4 -6.2,1.6 -7.3,2.6 -2.8,2.5 -11.3,19.9 -10.5,21.3 0.4,0.6 2.1,1.8 3.8,2.7 2.7,1.4 3.1,1.4 4.9,-0.2 1,-0.9 3.2,-4 4.8,-6.8 4.5,-8 6.1,-9 15.3,-9.7 5.3,-0.4 8.3,-1 8.9,-2 1.6,-2.5 1,-6.8 -1,-7.9 -2.2,-1.1 -10.9,-1.1 -18.9,0 z"
       id="path86"
       style="fill:#0fa7f3;stroke:none;stroke-width:0.1;fill-opacity:1" />
    <path
       d="m 312.2,209.9 c -0.8,0.5 -1.2,2.3 -1,4.7 0.3,3.6 0.6,4 4.3,5.2 2.4,0.8 5.7,3.1 8.2,5.8 3.4,3.8 4.6,4.5 6.5,3.9 5.6,-1.7 5.9,-3.4 2.2,-10.8 -4.3,-8.6 -5.8,-9.7 -12.8,-9.7 -3.4,0 -6.7,0.4 -7.4,0.9 z"
       id="path94"
       style="fill:#0fa7f3;stroke:none;stroke-width:0.1;fill-opacity:1" />
    <path
       d="m 414.3,213.3 c -3,1.6 -7,7.1 -8.4,11.5 -1.1,3.3 -1,3.7 1.5,5.9 1.5,1.3 3.1,2.3 3.7,2.3 0.5,0 2.6,-1.5 4.7,-3.4 2.3,-2.1 5.3,-3.7 7.7,-4.1 5.6,-1 6.7,-2.2 5.9,-5.9 -1,-5 -4.1,-7.6 -8.8,-7.6 -2.3,0.1 -5.1,0.6 -6.3,1.3 z"
       id="path96"
       style="fill:#0fa7f3;stroke:none;stroke-width:0.1;fill-opacity:1" />
    <path
       d="m 306.3,232 c -3,1.2 -5.3,6 -5.3,11 0,3.3 0.6,4.8 2.9,7.1 3.2,3.1 6.2,3.6 9.9,1.5 3,-1.6 6.2,-6.5 6.2,-9.4 0,-3.1 -3.4,-7.9 -7,-9.7 -3.3,-1.7 -3.6,-1.7 -6.7,-0.5 z"
       id="path100"
       style="fill:#0fa7f3;stroke:none;stroke-width:0.1;fill-opacity:1" />
    <path
       d="m 424.7,239 c -5.5,4.3 -5.2,14.1 0.5,18.3 2.4,1.8 3,1.8 5.8,0.7 4.4,-1.8 8,-6.9 8,-11.3 0,-2.6 -0.8,-4.3 -3.1,-6.6 -3.6,-3.7 -7.5,-4 -11.2,-1.1 z"
       id="path110"
       style="fill:#0fa7f3;stroke:none;stroke-width:0.1;fill-opacity:1" />
  </g>
  <g
     id="g1596"
     style="fill:#0fa7f3;fill-opacity:1">
    <path
       d="m 1020.7,155 c -5.4,4.3 -4.7,13.8 1.4,20.5 2.1,2.3 3.9,4.4 3.9,4.7 0,0.2 -2.9,0.2 -6.5,0 -6.4,-0.4 -6.5,-0.4 -6.5,2 0,3.7 3.6,7.6 7.5,8.4 l 3.5,0.6 -2,2.5 c -2.7,3.4 -2.5,4.9 0.8,8.3 5.7,5.6 15.4,4.9 21.2,-1.6 2.6,-3 3.1,-4.3 2.8,-7.7 -0.3,-3.6 -0.6,-4.2 -2.5,-4.1 -2,0 -2,-0.1 0.7,-3.5 3.8,-4.9 4.4,-7.4 2.5,-11.1 -0.8,-1.6 -1.8,-3 -2.1,-3 -0.3,0 -2.4,1.6 -4.7,3.5 -6.4,5.5 -7.2,4.6 -3.2,-3.2 2.2,-4.2 2.4,-5.3 1.4,-8.7 -1.7,-6.1 -5.8,-9.6 -11.2,-9.6 -2.9,0 -5.3,0.7 -7,2 z"
       id="path72"
       style="fill:#0fa7f3;stroke:none;stroke-width:0.1;fill-opacity:1" />
    <path
       d="m 1082.2,176.6 c -3.2,2.2 -4.6,5.2 -5.2,11.4 l -0.5,5.5 -2.3,-6.1 c -4,-11 -7.1,-8.8 -8,5.8 l -0.5,8.8 -1.6,-3.3 c -3.4,-6.8 -7.8,-2.1 -6.5,6.9 1.2,8.6 6.7,13.4 15.2,13.4 4.2,0 6.8,-2 5.8,-4.5 -0.3,-0.8 -1.4,-1.5 -2.5,-1.5 -1.1,0 -2.3,-0.5 -2.6,-1 -1.1,-1.7 4,-1.1 8.9,1.1 4.4,1.9 4.9,1.9 7.1,0.5 2.9,-1.9 4.6,-4.8 3.7,-6.3 -0.4,-0.5 -3.2,-2.4 -6.2,-4.1 l -5.5,-3.2 h 4.6 c 7.8,0 12.9,-5.7 12.9,-14.3 0,-3.9 -0.5,-4.9 -3.5,-7.6 -4.1,-3.5 -9.5,-4.2 -13.3,-1.5 z"
       id="path82"
       style="fill:#0fa7f3;stroke:none;stroke-width:0.1;fill-opacity:1" />
    <path
       d="m 994.3,200.6 c -0.3,0.8 -0.3,3.7 0,6.5 0.3,2.7 0.4,4.9 0.2,4.9 -0.2,0 -1.2,-1.6 -2.1,-3.6 -2.1,-4.5 -6.7,-7.4 -11.5,-7.4 -9.7,0 -14.2,12.8 -7.3,20.9 3.6,4.3 7.3,4.8 14,1.7 6.2,-2.8 6.2,-3.1 -0.8,5.5 -2.1,2.5 -3.8,4.8 -3.8,5.1 0,1.2 7.1,3 9.3,2.4 1.3,-0.3 4.2,-2.2 6.5,-4.1 4.5,-3.9 5.2,-3.9 2.5,0.1 -1.5,2.3 -1.5,2.6 0,4.2 1.5,1.5 2.1,1.5 5.9,0.2 7.4,-2.6 11.2,-11.2 8.9,-20 -2.5,-9.4 -7.1,-12.2 -8.8,-5.3 l -1,3.8 -0.7,-4.5 c -0.5,-2.5 -1.5,-5.7 -2.2,-7.2 -2.3,-4.5 -7.8,-6.4 -9.1,-3.2 z"
       id="path88"
       style="fill:#0fa7f3;stroke:none;stroke-width:0.1;fill-opacity:1" />
    <path
       d="m 1047.8,202.5 c -4.4,3 -8.1,8.6 -7.6,11.7 0.2,1.9 0.9,2.3 3.9,2.3 2.3,0 4.5,0.8 5.9,2 1.8,1.6 2.3,1.7 3.1,0.5 1.2,-1.8 0.6,-16.7 -0.7,-18 -0.6,-0.6 -2.3,-0.1 -4.6,1.5 z"
       id="path90"
       style="fill:#0fa7f3;stroke:none;stroke-width:0.1;fill-opacity:1" />
    <path
       d="m 1020.4,209.4 c -0.9,2.4 0.5,11.7 2.1,14.2 0.8,1.2 3,2.5 4.9,2.8 4.8,0.9 5.3,2.2 2.5,7.2 l -2.3,4.4 3.8,3.9 3.9,4 -3.8,4.2 c -3.4,3.8 -3.7,4.5 -3.2,8.4 0.8,5.8 2.4,9.5 4,9.5 2.6,0 9.6,-5.9 10.3,-8.6 1,-3.8 -0.7,-6 -4.2,-5.6 -2.8,0.3 -2.8,0.3 -1,-1.7 2.6,-2.9 8.4,-5.4 11.1,-4.7 2.5,0.7 3.5,-0.8 3.5,-5.3 0,-1.5 0.9,-4.5 2,-6.6 2,-3.8 2,-4.1 0.3,-5 -3.5,-2 -7.3,-6.4 -7.3,-8.5 0,-2.9 -2.5,-3.6 -5.7,-1.5 -3,2 -11.7,2.5 -13.5,0.7 -0.9,-0.9 -0.3,-1.5 2.6,-2.7 2,-0.9 3.9,-2.2 4.2,-3 1,-2.5 -1.4,-5.2 -5.3,-5.9 -2.1,-0.3 -4.8,-0.9 -6,-1.2 -1.6,-0.4 -2.5,-0.1 -2.9,1 z"
       id="path92"
       style="fill:#0fa7f3;stroke:none;stroke-width:0.1;fill-opacity:1" />
    <path
       d="m 1057.1,223.4 c -1,1.2 -0.9,2.8 0.4,8.5 1,3.8 2.3,7.2 3.1,7.5 1.8,0.7 7,-3.1 11.2,-8.1 l 3.4,-4.3 -4.7,-2 c -6.8,-2.9 -11.8,-3.5 -13.4,-1.6 z"
       id="path98"
       style="fill:#0fa7f3;stroke:none;stroke-width:0.1;fill-opacity:1" />
    <path
       d="m 1014.7,237 c -5.6,5.6 -5.4,6.8 1,8.9 5.5,1.8 10.7,1.1 11.1,-1.5 0.2,-1.1 -0.6,-2.8 -1.8,-3.9 -1.9,-1.7 -1.9,-2 -0.4,-3.6 2.2,-2.4 1.1,-4.9 -2.2,-4.9 -1.9,0 -4.2,1.5 -7.7,5 z"
       id="path106"
       style="fill:#0fa7f3;stroke:none;stroke-width:0.1;fill-opacity:1" />
    <path
       d="m 1075.4,234.9 c -7.7,3.5 -10.8,13.1 -7.2,22.1 1.1,2.8 2.2,3.5 5.8,4.4 4,1 4.6,1.5 5.6,5.1 1,3.8 1.3,4 5,4 h 3.9 l -0.3,-7.3 c -0.2,-5.6 0.1,-7.3 1,-7 0.7,0.3 1.7,1.8 2.2,3.4 2,6.8 5.7,9.9 11.7,9.9 3.4,0 4.6,-0.6 7,-3.3 5.5,-6.2 3,-17.6 -4.6,-20.8 -4.7,-1.9 -5.9,-1.8 -9.3,1.1 -3,2.5 -5.2,3.2 -5.2,1.7 0,-0.4 1.6,-3.2 3.5,-6.2 4.3,-6.7 4.2,-8.4 -0.7,-8.8 -2.9,-0.3 -4.3,0.3 -7.3,3 -3.2,2.8 -3.7,2.9 -3.1,1.1 0.5,-1.6 0.2,-2.5 -1.3,-3.2 -2.4,-1.3 -1.8,-1.4 -6.7,0.8 z"
       id="path108"
       style="fill:#0fa7f3;stroke:none;stroke-width:0.1;fill-opacity:1" />
    <path
       d="m 1056.3,243.7 c -0.7,0.3 -1.3,1.4 -1.3,2.6 0,3.6 -1.5,5 -4.4,4.3 -2.2,-0.5 -2.6,-0.3 -2.6,1.7 0,3.7 7,9 13,9.8 2.4,0.4 2.5,0.3 2.2,-5.4 -0.3,-7.9 -3.7,-14.2 -6.9,-13 z"
       id="path112"
       style="fill:#0fa7f3;stroke:none;stroke-width:0.1;fill-opacity:1" />
    <path
       d="m 1004.3,250.7 c -2.1,0.8 -1.5,2.7 1.7,5.8 1.6,1.6 2.8,3 2.6,3.2 -0.1,0.2 -2.3,-0.6 -4.7,-1.7 -5.5,-2.4 -9,-2.5 -11.9,-0.2 -2.9,2.3 -1.9,4.3 4.1,8.8 2.7,2 4.9,3.7 4.9,3.9 0,0.1 -1.9,0.1 -4.2,-0.2 -5.2,-0.5 -8.5,1.1 -11.5,5.6 -7.2,10.7 5.4,25.7 15.1,18 4,-3.1 5.9,-7.6 5.3,-12.1 -0.4,-2.7 -0.2,-3.8 0.6,-3.5 1.7,0.5 3.7,4.8 3.7,7.8 0,6.2 5.8,5.1 7.9,-1.4 0.9,-2.6 0.7,-4.6 -0.9,-10.1 -1.1,-3.9 -1.8,-7.2 -1.6,-7.4 0.3,-0.2 1.5,1.5 2.8,3.7 2.6,4.6 4,5.1 6.2,1.9 5.4,-7.7 -4.6,-22.9 -14.8,-22.7 -2.3,0 -4.7,0.3 -5.3,0.6 z"
       id="path114"
       style="fill:#0fa7f3;stroke:none;stroke-width:0.1;fill-opacity:1" />
    <path
       d="m 1044.5,265.4 c -4.5,2 -9.7,8.3 -9.3,11.3 0.5,4.1 3.2,5.2 6.2,2.4 4.1,-3.8 5,-1.9 1.1,2.4 -2,2.2 -4.5,5.3 -5.6,7 -2.1,3.3 -2.5,9 -0.8,10.1 0.6,0.3 3.8,-1.2 7,-3.4 6.3,-4.4 7,-4.5 3.9,-0.5 -5.8,7.4 -3.5,18.5 4.6,21.9 2.9,1.2 3.9,1.2 6.7,0 9.2,-3.8 10.4,-20.7 1.6,-23.2 -2,-0.6 -3.5,-1.7 -3.7,-2.8 -0.3,-1.6 0.1,-1.7 4,-1 8.2,1.4 8.3,1.4 8.3,-3.5 0,-3.2 -0.5,-4.6 -1.7,-5.2 -1,-0.5 -2.6,-1.3 -3.5,-1.8 -1.4,-0.6 -1.8,-2.1 -1.8,-6.2 0,-5.2 -0.2,-5.5 -3.5,-7.1 -4.1,-2.1 -9.3,-2.2 -13.5,-0.4 z"
       id="path116"
       style="fill:#0fa7f3;stroke:none;stroke-width:0.1;fill-opacity:1" />
  </g>
  <g
     id="g1583"
     style="fill:#0fa7f3;fill-opacity:1">
    <path
       d="m 552.2,232.5 c -5.5,2.4 -7.9,11.3 -4.7,17.5 2,3.8 6.2,7 9.4,7 2,0 2.3,0.2 1.1,1 -0.8,0.5 -3.1,1 -5.1,1 -4.9,0 -5.9,1.5 -4.5,6.5 1.2,4 1.2,4 7.4,4.8 6.1,0.9 6.2,0.9 4.1,2.6 -4.5,3.6 0.2,8.1 8.4,8.1 5.4,0 10.1,-2.9 12.5,-7.7 5.2,-10.2 2.8,-16.4 -4,-10.5 -2.4,2 -2.3,1.4 0.7,-5 2.9,-6.2 3.2,-11.9 0.8,-14.4 -1.6,-1.5 -1.8,-1.5 -4.2,1.2 -1.5,1.6 -3.5,4.2 -4.7,5.7 l -2,2.9 0.4,-6.5 c 0.5,-7.5 -1.3,-11.9 -5.8,-14.2 -3.6,-1.8 -5.5,-1.8 -9.8,0 z"
       id="path102"
       style="fill:#0fa7f3;stroke:none;stroke-width:0.1;fill-opacity:1" />
    <path
       d="m 617,232.2 c -1.3,0.7 -3.5,2.9 -4.8,4.8 -2.1,3.1 -2.3,4.3 -1.8,10.4 l 0.5,7 -2,-3.5 c -4.8,-7.9 -9.3,-10.2 -10.5,-5.4 -0.9,3.6 0.4,9.3 3.1,14.2 2.3,4.2 2,5.8 -0.5,2.8 -0.7,-0.8 -2.4,-1.5 -3.7,-1.5 -2.5,0 -2.5,0.2 -2.1,5 0.6,5.8 4.6,12.6 8.4,14 9.1,3.5 21.8,-2.9 14.2,-7.2 -2.1,-1.1 -1.8,-1.3 4.1,-2.3 6.3,-1 6.4,-1.1 7.8,-5 1.2,-3.6 1.2,-4.1 -0.4,-5.2 -0.9,-0.7 -3.4,-1.3 -5.5,-1.3 -2.1,0 -3.8,-0.5 -3.8,-1 0,-0.6 0.8,-1 1.9,-1 4.2,0 11.1,-8.7 11.1,-14 0,-7.8 -9.5,-14.2 -16,-10.8 z"
       id="path104"
       style="fill:#0fa7f3;stroke:none;stroke-width:0.1;fill-opacity:1" />
    <path
       d="m 586,272.8 c -3.8,6.3 -4.3,10.5 -1.9,16.1 1.3,3.1 1.2,3.5 -0.5,4.5 -5.2,3.1 -5.9,4.3 -6.4,9.9 -0.5,6.1 1.1,11.7 3.4,11.7 0.8,0 3.3,1.7 5.6,3.7 3,2.8 4.2,3.4 4.6,2.4 0.5,-1.6 3.7,-4.7 7.3,-7.2 2.2,-1.5 2.4,-2.4 2.4,-8.9 0,-6.5 -0.2,-7.4 -2.4,-8.9 -3.2,-2.1 -10.1,-9.2 -10.1,-10.3 0,-0.4 1.8,-0.5 4,-0.2 3.1,0.5 4.1,0.3 4.6,-0.9 0.8,-2.1 -0.9,-7 -4.4,-12.9 l -2.8,-4.7 z"
       id="path118"
       style="fill:#0fa7f3;stroke:none;stroke-width:0.1;fill-opacity:1" />
    <path
       d="m 536.3,284.7 c -1.9,0.7 -1.5,6.2 0.7,11 2.1,4.7 1.4,5.5 -1.6,2.2 -6.6,-7.3 -16.1,-6.2 -20.3,2.4 -1.8,3.7 -2,4.9 -1.1,7.3 3.7,9.7 14.2,12.1 21.1,4.8 3,-3.2 4.3,-3 2.5,0.3 -4.5,8.8 -3.5,14.7 2.1,12.8 2.4,-0.9 5.6,-4.8 9.8,-11.9 0.8,-1.4 1,-1 1,2.1 0,3.4 0.3,3.8 2.5,3.8 1.7,0 3.3,-1.2 5.5,-4.3 2.5,-3.7 3,-5.3 3,-10.2 0,-4.9 -0.5,-6.5 -3,-10.2 -2.2,-3.1 -3.8,-4.3 -5.5,-4.3 -2.2,0 -2.5,0.4 -2.5,3.8 0,2 -0.1,3.7 -0.2,3.7 0,0 -1.5,-2.4 -3.2,-5.4 -4,-7.1 -7.2,-9.4 -10.8,-7.9 z"
       id="path120"
       style="fill:#0fa7f3;stroke:none;stroke-width:0.1;fill-opacity:1" />
    <path
       d="m 566,285.3 c -4.5,2.3 -3.5,10.9 1.9,16.1 3.9,3.7 5.5,2.7 4.7,-3 -0.5,-4.3 -0.5,-4.4 3,-5.9 3.1,-1.3 3.4,-1.7 2.4,-3.4 -2,-3.7 -8.2,-5.7 -12,-3.8 z"
       id="path122"
       style="fill:#0fa7f3;stroke:none;stroke-width:0.1;fill-opacity:1" />
    <path
       d="m 636.2,285.6 c -1.3,0.9 -3.7,4 -5.3,7 -1.7,3 -3.2,5.4 -3.4,5.4 -0.1,0 -0.2,-1.7 -0.1,-3.8 0.1,-3.3 -0.2,-3.7 -2.4,-3.7 -3.2,0 -8,6.7 -8.7,12.3 -0.7,5.4 1.9,12.3 5.9,15.7 4,3.3 6.2,1.9 5.4,-3.4 l -0.6,-3.6 1.7,2.5 c 7.4,10.4 10,12.7 12.7,11.7 2.2,-0.9 2.1,-5.5 -0.4,-11.1 -1,-2.5 -1.7,-4.6 -1.4,-4.6 0.3,0 1.9,1.4 3.7,3 9.5,9 20.7,4 20.7,-9.1 0,-5.6 -5,-10.9 -10.4,-10.9 -4.2,0 -8.2,1.8 -11,4.9 -3,3.3 -3.7,2.5 -1.6,-2.2 2.4,-5.2 2.6,-10.3 0.4,-11.1 -2.3,-0.9 -2.7,-0.8 -5.2,1 z"
       id="path124"
       style="fill:#0fa7f3;stroke:none;stroke-width:0.1;fill-opacity:1" />
    <path
       d="m 601.4,287.5 c -1.8,2.7 -1.2,4.2 2.1,5.5 2,0.8 2.2,1.4 1.8,5.3 -0.3,2.7 -0.1,4.7 0.6,5.1 3.2,2 9,-6.4 9.1,-13.1 0,-3.9 -2.1,-5.3 -7.9,-5.3 -3.2,0 -4.4,0.5 -5.7,2.5 z"
       id="path126"
       style="fill:#0fa7f3;stroke:none;stroke-width:0.1;fill-opacity:1" />
    <path
       d="m 569.1,307.6 c -2.8,2 -6.1,8.5 -6.1,12.1 0,3.3 2.3,5 7.8,5.9 3.2,0.5 4.4,0.2 6.1,-1.5 2.6,-2.6 2.7,-5 0.4,-5.7 -4.3,-1.3 -4.8,-2.1 -4.5,-6.7 0.4,-5.2 -0.6,-6.3 -3.7,-4.1 z"
       id="path128"
       style="fill:#0fa7f3;stroke:none;stroke-width:0.1;fill-opacity:1" />
    <path
       d="m 605.2,311.6 c 0.3,4.5 0.1,5 -2.4,6.2 -3.5,1.6 -3.5,3.5 -0.2,6.1 3.3,2.6 8.4,2.7 11.5,0.2 2.1,-1.7 2.2,-2.1 1.1,-5.8 -1.7,-5.7 -5.4,-10.7 -8.1,-11.1 -2.2,-0.3 -2.3,-0.1 -1.9,4.4 z"
       id="path130"
       style="fill:#0fa7f3;stroke:none;stroke-width:0.1;fill-opacity:1" />
    <path
       d="m 583.1,323.4 c -1.4,3.6 -0.4,8.1 3.2,14.5 l 3,5.4 2.3,-3.9 c 3.4,-5.6 5.7,-12.1 5,-14 -0.5,-1.3 -1.4,-1.5 -4.2,-0.9 -2.9,0.5 -4.1,0.2 -6,-1.6 l -2.3,-2.2 z"
       id="path132"
       style="fill:#0fa7f3;stroke:none;stroke-width:0.1;fill-opacity:1" />
    <path
       d="m 560.8,330.6 c -3.6,1.9 -3.6,4.9 -0.1,6.8 2.7,1.4 2.7,1.4 -3.2,2.1 -8.2,0.9 -8.2,0.9 -9.4,5.1 -1.3,4.9 -0.4,6 6.2,6.9 5.2,0.8 5.2,0.8 1.8,1.5 -1.8,0.5 -4.7,2.2 -6.4,3.8 -5.8,5.8 -4.5,17.2 2.3,20.7 3.7,1.9 6.3,1.9 10,0 4.6,-2.4 6.3,-6.7 5.7,-14.4 -0.4,-5.2 -0.2,-6.2 0.7,-4.7 0.6,1.1 2.8,3.8 4.9,6 3.6,4 3.8,4 5.2,2.2 2.1,-2.8 1.8,-7.2 -1,-14.1 -1.4,-3.3 -2.5,-6.1 -2.5,-6.3 0,-0.2 1.2,0.6 2.6,1.7 3.4,2.7 4.2,2.6 5.6,-0.4 0.9,-2.1 0.6,-3.4 -2,-8.7 -1.9,-3.9 -4.2,-7 -6,-8.1 -3.6,-2.1 -10.7,-2.2 -14.4,-0.1 z"
       id="path136"
       style="fill:#0fa7f3;stroke:none;stroke-width:0.1;fill-opacity:1" />
    <path
       d="m 602.3,331.1 c -3.8,2.4 -7.3,9.2 -7.3,14.2 0,4.6 1.5,5.5 5.1,2.8 1.5,-1.1 3,-2.1 3.2,-2.1 0.2,0 -0.9,2.5 -2.5,5.6 -3.1,6.3 -3.6,12 -1.3,15 1.4,1.8 1.6,1.8 4.7,-1.6 1.8,-1.9 4.1,-4.6 5.1,-6 l 1.8,-2.5 -0.7,2.4 c -2,7.5 0.4,15.4 5.6,18.5 4.9,2.8 8.8,2.1 13.2,-2.4 4.5,-4.8 4.7,-7.2 1.4,-13.8 -2.5,-4.9 -6.7,-8.1 -10.8,-8.3 -1.2,-0.1 0.2,-0.6 3.2,-1.1 7.4,-1.3 8,-2 6.8,-6.8 -1.1,-4.3 -1.5,-4.5 -10.3,-5.5 l -5.9,-0.7 3.2,-1.4 c 3.9,-1.6 4.1,-3.6 0.6,-6.3 -3.6,-2.8 -10.8,-2.8 -15.1,0 z"
       id="path138"
       style="fill:#0fa7f3;stroke:none;stroke-width:0.1;fill-opacity:1" />
  </g>
  <g
     id="g1534"
     style="fill:#0fa7f3;fill-opacity:1">
    <path
       d="m 33.2,340.9 c -2.2,1.6 -4.3,3.5 -4.7,4.1 -0.4,0.6 0.7,3.1 2.4,5.5 1.7,2.4 3.1,4.6 3.1,4.9 0,0.3 -1.4,0.6 -3,0.6 -3.9,0 -4.8,2.2 -2.4,5.6 4.5,6.3 5.4,8.1 5.4,10.6 0,2.2 -0.5,2.8 -2.1,2.8 -1.5,0 -2.6,-1.4 -4.3,-5.3 -1.3,-2.8 -3.3,-6 -4.4,-7 -1.9,-1.8 -2,-1.8 -3.5,0.3 -1.4,2 -1.5,1.9 -3.6,-2.9 -1.1,-2.7 -2.5,-5.2 -3,-5.5 -0.4,-0.3 -2.1,0.8 -3.6,2.4 -1.6,1.7 -3.7,3 -4.7,3 -2.7,0 -4.1,3.8 -4.2,11.9 l -0.1,7.6 5.3,-0.3 5.4,-0.4 -0.7,3.2 c -1,4.4 0.3,4.9 9.1,4.3 6.3,-0.5 7.4,-0.3 8,1.1 1,2.7 -0.6,3.5 -8.4,4.5 -8.8,1.1 -11.1,2.5 -8.5,5.3 1.6,1.8 1.5,1.8 -4.3,1.6 l -5.9,-0.3 v 7 C 0.6,415.8 1.4,418 5,418 c 2.3,0 3.3,0.6 4.2,2.5 0.6,1.4 1.4,2.5 1.8,2.5 1.2,0 3.6,-3.3 5,-6.8 1.4,-3.5 2.5,-4 3.4,-1.7 1.4,3.7 7.5,0.5 7.6,-4 0,-2.8 3.7,-8.5 5.5,-8.5 3.2,0 1.4,7.3 -3.9,15.2 -1.7,2.7 -1.7,2.7 1.3,4.3 3.8,1.9 3.8,2.7 0.5,7.1 -1.4,1.8 -2.4,4 -2.1,4.8 0.4,0.9 3.1,3.2 6.1,5.2 6.5,4.3 9,4.1 12.1,-0.9 1.1,-1.7 3,-3.3 4.3,-3.5 2.5,-0.4 2.8,-1.9 0.7,-4.6 -1.9,-2.6 -1.9,-4.8 0.2,-8.3 1.6,-2.8 1.5,-3 -1.5,-7.2 -2.1,-2.9 -3.2,-5.6 -3.2,-7.8 0,-6.9 5.9,-4.7 7.9,3 0.5,2.3 1.7,5.1 2.6,6.2 1.5,2 1.5,2 3.4,-0.3 2.5,-2.9 2.7,-2.8 4.1,1.2 0.6,1.8 1.9,4.1 3,5.1 2.5,2.3 5.4,1.2 4.7,-1.6 -0.5,-1.9 -0.3,-2.1 2.5,-1.5 5,1 5.8,-0.5 5.8,-10.6 0,-6.2 -0.4,-9 -1.3,-9.3 -0.7,-0.3 -3.4,-0.1 -6,0.4 -5.1,0.9 -5.5,0.7 -3.1,-1.6 2.3,-2.3 0,-4.1 -6.1,-4.9 -8,-0.9 -9.5,-1.3 -9.5,-2.9 0,-2.3 3.4,-3.5 10.1,-3.5 h 6.2 l -0.6,-3.6 -0.6,-3.5 5.2,0.3 5.2,0.3 0.3,-5.2 c 0.2,-2.9 -0.2,-7 -0.7,-9.1 -0.9,-3.2 -1.7,-4.1 -4.3,-4.8 -2.4,-0.7 -3.3,-1.6 -3.4,-3.2 -0.2,-3.1 -0.9,-3.6 -3.2,-2.3 -1.1,0.6 -2.8,3.3 -3.7,6.1 -1.8,5.5 -2.4,5.9 -4.3,3 -1.8,-2.9 -2.4,-2.6 -5.4,2.8 -1.5,2.6 -4.1,6.3 -5.8,8.2 l -3.1,3.5 0.4,-5.3 c 0.3,-4.1 1.1,-6.2 3.6,-9.3 3.8,-4.6 3.7,-7.3 -0.2,-7.7 -3.4,-0.4 -3.4,-1.7 0.3,-6.6 1.7,-2.2 3,-4.3 3,-4.8 0,-0.5 -2.1,-2.2 -4.7,-3.8 -6.2,-3.9 -10.7,-4 -16.1,-0.1 z"
       id="path140"
       style="fill:#0fa7f3;stroke:none;stroke-width:0.1;fill-opacity:1" />
  </g>
  <g
     id="g1504"
     style="fill:#0fa7f3;fill-opacity:1">
    <path
       d="m 795.1,407.6 c -1.2,1.5 -2.1,3.1 -2.1,3.6 0,0.5 -1.2,0.7 -2.7,0.6 -2.6,-0.3 -2.8,-0.1 -2.7,3.3 0.1,2 1.1,5 2.3,6.7 2.6,3.7 2.6,4.5 0.2,3.7 -3.4,-1 -3.4,2.7 -0.1,9.6 3.3,7.1 3.8,10.4 1.4,11.3 -1.6,0.6 -2.4,-0.5 -6.7,-9.4 -2,-4.2 -2.5,-4.5 -6.4,-4.8 -3.8,-0.3 -4.4,-0.6 -5.1,-3.4 -0.4,-1.7 -1.6,-3.6 -2.6,-4.2 -1.4,-0.9 -2.1,-0.6 -4,1.7 -1.2,1.5 -3.7,3.5 -5.6,4.5 -4.9,2.5 -5.8,4.4 -3.4,7.8 1,1.6 1.9,4.4 1.9,6.3 0,3.1 0.3,3.5 4,4.5 3.2,0.9 4.1,1.8 4.8,4.3 l 0.9,3.1 7.2,-0.5 c 5.6,-0.4 7.5,-0.1 9.1,1.1 l 2,1.6 -2,1.6 c -1.6,1.2 -3.5,1.5 -8.8,1 l -6.8,-0.5 -1.5,3.4 c -1,2.4 -2.2,3.6 -4.2,4.1 -7,1.5 -8.9,3.5 -5.5,5.9 1.6,1.2 1.6,1.4 0,3.8 -2,3.1 -2.2,7.2 -0.4,8.4 0.6,0.4 3,0.8 5.2,0.8 3.3,0 4,0.4 4.5,2.5 0.3,1.5 1.4,2.6 2.7,2.8 1.6,0.2 2.2,-0.4 2.6,-2.8 0.5,-2.1 1.5,-3.3 3.4,-4 4.7,-1.7 5.7,-2.5 8.7,-7.6 1.5,-2.7 3.3,-5.2 4,-5.6 4.5,-2.9 4.8,2.6 0.5,9.3 -3.7,5.8 -3.7,10.4 -0.1,10.3 2.7,-0.1 2.7,-0.1 -0.3,4.4 -3.7,5.4 -2.9,10.2 1.5,10.2 0.9,0 2.7,1.1 4,2.5 3.1,3.3 4.1,3.2 9.6,-1 2.5,-1.9 5.2,-3.5 6,-3.5 1.8,0 1.8,-0.7 -0.1,-5.9 -1.3,-3.7 -1.3,-4.5 0,-6.5 1.3,-2 1.2,-2.8 -1.5,-8.5 -3.3,-7 -3.9,-12.1 -1.5,-12.1 1,0 3,2.9 5.2,7.5 1.9,4.1 3.9,7.5 4.3,7.5 0.4,0 1.5,-1.1 2.4,-2.5 2.3,-3.5 3.1,-3.2 4.5,1.7 1.2,4.1 3.6,7.8 5.1,7.8 0.4,0 1.2,-1.1 1.8,-2.4 0.6,-1.4 2.3,-2.7 4.1,-3.1 1.6,-0.3 3.5,-1.3 4.2,-2.1 2,-2.5 1.5,-7.5 -1,-9.6 -1.6,-1.2 -1.9,-1.8 -0.8,-1.8 2.1,0 3.7,-2.3 2.8,-3.9 -0.5,-0.7 -2.4,-1.6 -4.2,-2 -2.6,-0.5 -3.8,-1.5 -5.1,-4.4 l -1.8,-3.6 -6.5,0.6 c -5.1,0.5 -6.9,0.2 -9.1,-1.2 -2.3,-1.5 -2.5,-1.9 -1.1,-3.2 1.6,-1.6 8.2,-2 13.5,-0.9 3,0.7 3.3,0.5 4.7,-2.7 1.1,-2.8 2.2,-3.7 5.2,-4.4 2.8,-0.6 3.9,-1.4 4.1,-3.1 0.3,-1.7 -0.2,-2.2 -1.8,-2.2 -2.1,0 -2.1,-0.1 0.5,-3.2 2,-2.3 2.5,-3.8 2,-5.7 -0.9,-3.6 -2.4,-5.1 -4.9,-5.1 -2.8,0 -4.2,-1 -5,-3.8 -0.4,-1.2 -1.1,-2.2 -1.5,-2.2 -1.3,0 -3.7,3.2 -5.1,6.7 -1.4,3.7 -1.8,3.9 -4.6,1.8 -1,-0.8 -2.2,-1.5 -2.6,-1.5 -0.4,0 -2.3,3 -4.1,6.7 -3.8,7.8 -6.7,9.5 -6.7,4 0,-2.1 1.2,-5.1 3.2,-8.2 3.1,-4.7 3.1,-4.8 1.5,-7.7 -2.1,-3.7 -2.1,-4.9 0,-8.6 1.5,-2.5 1.5,-3.2 0.4,-4.6 -0.8,-0.9 -1.9,-1.5 -2.5,-1.4 -0.7,0.2 -3,-1.2 -5.3,-3 -2.2,-1.7 -4.6,-3.2 -5.1,-3.2 -0.6,0 -2,1.2 -3.1,2.6 z"
       id="path166"
       style="fill:#0fa7f3;stroke:none;stroke-width:0.1;fill-opacity:1" />
  </g>
  <path
     d="m 476,453.1 c -1.9,1.6 -4.5,3.2 -5.7,3.5 -2.7,0.7 -2.7,0.9 -0.8,6.3 1.3,3.7 1.3,4.5 0,6.5 -1.3,2 -1.2,2.8 1.5,8.5 3.3,7 3.9,12.1 1.5,12.1 -1,0 -3,-2.9 -5.2,-7.5 -1.9,-4.1 -3.9,-7.5 -4.4,-7.5 -0.5,0 -1.6,1.1 -2.5,2.5 -2.2,3.4 -2.9,3.2 -4.3,-1.8 -1.2,-4 -3.6,-7.7 -5.1,-7.7 -0.4,0 -1.2,1.1 -1.8,2.4 -0.6,1.4 -2.3,2.7 -4.1,3.1 -1.6,0.3 -3.5,1.3 -4.2,2.1 -2,2.5 -1.5,7.5 1,9.6 1.6,1.2 1.9,1.8 0.8,1.8 -2.1,0 -3.7,2.3 -2.8,3.9 0.5,0.7 2.4,1.6 4.2,2 2.6,0.5 3.8,1.5 5.1,4.4 l 1.8,3.6 6.5,-0.6 c 5.1,-0.5 6.9,-0.2 9.1,1.2 2.3,1.5 2.5,1.9 1.1,3.2 -1.6,1.6 -8.2,2 -13.5,0.9 -3,-0.7 -3.3,-0.5 -4.7,2.7 -1.1,2.7 -2.2,3.7 -4.7,4.2 -1.8,0.4 -3.8,1.2 -4.5,1.7 -1.7,1.3 -0.5,3.8 1.9,3.8 1.8,0 1.8,0.2 -0.7,3.2 -2,2.3 -2.5,3.8 -2,5.7 0.9,3.6 2.4,5.1 4.9,5.1 2.8,0 4.2,1 5,3.7 0.4,1.3 1.1,2.3 1.5,2.3 1.3,0 3.7,-3.2 5.1,-6.8 1.4,-3.6 1.8,-3.8 4.6,-1.7 1,0.8 2.2,1.5 2.6,1.5 0.4,0 2.3,-3 4.1,-6.7 3.8,-7.8 6.7,-9.5 6.7,-4 0,2.1 -1.2,5.1 -3.2,8.2 -3.1,4.7 -3.1,4.8 -1.5,7.7 2.1,3.7 2.1,4.9 0,8.6 -1.4,2.5 -1.5,3.3 -0.4,4.6 0.7,0.9 1.7,1.3 2.2,1 0.5,-0.3 2.8,1.1 5.1,3.1 2.3,1.9 4.9,3.4 5.8,3.3 0.8,-0.2 2.4,-1.8 3.5,-3.5 1.5,-2.4 2.7,-3.2 4.5,-3 2.3,0.2 2.5,-0.1 2.4,-3.4 -0.1,-2 -1.1,-5 -2.3,-6.7 -2.6,-3.7 -2.6,-4.5 -0.2,-3.7 3.4,1.1 3.5,-2.8 0.1,-9.4 -3.3,-6.7 -3.8,-10.6 -1.4,-11.5 1.6,-0.6 2.4,0.5 6.7,9.4 2,4.1 2.5,4.5 6.3,4.8 3.7,0.3 4.2,0.7 5,3.4 0.5,1.7 1.7,3.6 2.7,4.2 1.5,0.9 2.2,0.6 4.1,-1.7 1.2,-1.5 3.7,-3.5 5.6,-4.5 4.9,-2.5 5.8,-4.4 3.4,-7.8 -1,-1.6 -1.9,-4.4 -1.9,-6.3 0,-3.1 -0.3,-3.5 -4,-4.5 -3.2,-0.9 -4.1,-1.8 -4.8,-4.3 l -0.9,-3.1 -7.2,0.5 c -5.6,0.4 -7.5,0.1 -9.1,-1.1 l -2,-1.6 2,-1.6 c 1.6,-1.2 3.5,-1.5 8.8,-1 l 6.8,0.5 1.5,-3.4 c 1,-2.4 2.2,-3.6 4.2,-4.1 7,-1.5 8.9,-3.5 5.5,-5.9 -1.6,-1.2 -1.6,-1.4 0,-3.8 2,-3.1 2.2,-7.2 0.5,-8.4 -0.7,-0.4 -3.1,-0.8 -5.3,-0.8 -3.3,0 -4,-0.4 -4.5,-2.5 -0.3,-1.5 -1.4,-2.6 -2.7,-2.8 -1.6,-0.2 -2.2,0.4 -2.6,2.8 -0.5,2.1 -1.5,3.3 -3.4,4 -4.7,1.7 -5.7,2.5 -8.7,7.6 -1.5,2.7 -3.3,5.2 -4,5.6 -4.5,2.9 -4.8,-2.6 -0.5,-9.3 3.7,-5.8 3.7,-10.4 0.2,-10.3 -2.8,0.1 -2.8,0.1 0.2,-4.4 3.7,-5.4 2.9,-10.2 -1.5,-10.2 -0.9,0 -2.7,-1.1 -4,-2.5 -3,-3.2 -4.7,-3.1 -9,0.6 z"
     id="path186"
     style="fill:#0fa7f3;stroke:none;stroke-width:0.1;fill-opacity:1"
     inkscape:export-xdpi="25"
     inkscape:export-ydpi="25" />
  <path
     d="m 1236,521.2 c -0.5,0.7 -1.9,2.5 -3.1,4 -1.1,1.6 -2.9,2.8 -4,2.8 -2.3,0 -2.4,1.7 -0.4,4.4 1.9,2.6 1.9,4.8 -0.2,8.3 -1.6,2.8 -1.5,3 1.5,7.2 2.1,2.9 3.2,5.6 3.2,7.8 0,6.9 -5.9,4.7 -7.9,-3 -0.5,-2.3 -1.7,-5.1 -2.6,-6.2 -1.5,-2 -1.5,-2 -3.4,0.2 -2.5,3 -2.7,2.9 -4.1,-1.1 -0.6,-1.8 -1.9,-4.1 -3,-5.1 -2.5,-2.3 -5.4,-1.2 -4.7,1.6 0.5,1.9 0.3,2.1 -2.5,1.5 -5,-1 -5.8,0.5 -5.8,10.6 0,6.2 0.4,9 1.3,9.3 0.7,0.3 3.4,0.1 6,-0.4 5.1,-0.9 5.5,-0.7 3.1,1.6 -2.3,2.3 0,4.1 6.1,4.9 8,0.9 9.5,1.3 9.5,2.9 0,2.3 -3.4,3.5 -10.1,3.5 h -6.2 l 0.6,3.6 0.6,3.5 -5.2,-0.3 -5.2,-0.3 -0.3,5.2 c -0.2,2.9 0.2,7 0.7,9.1 0.9,3.2 1.7,4.1 4.3,4.8 2.4,0.7 3.3,1.6 3.4,3.2 0.2,3.1 0.9,3.6 3.2,2.3 1.1,-0.6 2.8,-3.3 3.7,-6.1 1.8,-5.5 2.4,-5.9 4.3,-3 1.8,2.9 2.4,2.6 5.4,-2.8 1.5,-2.6 4.1,-6.3 5.8,-8.2 l 3.1,-3.5 -0.4,5.3 c -0.3,4.1 -1.1,6.2 -3.6,9.3 -3.8,4.6 -3.7,7.3 0.2,7.7 3.4,0.4 3.4,1.7 -0.3,6.6 -1.7,2.2 -3,4.3 -3,4.8 0,1.9 9.5,6.8 13,6.8 3.5,0 10.7,-4 12.5,-7 0.4,-0.6 -0.7,-3.1 -2.4,-5.5 -1.7,-2.4 -3.1,-4.6 -3.1,-4.9 0,-0.3 1.4,-0.6 3,-0.6 3.9,0 4.8,-2.2 2.4,-5.6 -4.5,-6.3 -5.4,-8.1 -5.4,-10.7 0,-2.1 0.5,-2.7 2.1,-2.7 1.5,0 2.6,1.4 4.3,5.2 1.3,2.9 3.3,6.1 4.4,7.1 1.9,1.8 2,1.8 3.5,-0.3 1.4,-2 1.5,-1.9 3.6,2.9 1.1,2.7 2.5,5.2 3,5.5 0.4,0.3 2.1,-0.8 3.6,-2.4 1.6,-1.7 3.7,-3 4.7,-3 2.7,0 4.1,-3.8 4.2,-11.9 l 0.1,-7.6 -5.3,0.3 -5.4,0.4 0.7,-3.2 c 1,-4.4 -0.3,-4.9 -9.1,-4.3 -6.3,0.5 -7.4,0.3 -8,-1.1 -1,-2.7 0.6,-3.5 8.4,-4.5 8.8,-1.1 11.1,-2.5 8.5,-5.3 -1.6,-1.8 -1.5,-1.8 4.3,-1.6 l 5.9,0.3 v -7 c -0.1,-10.3 -0.9,-12.5 -4.5,-12.5 -2.3,0 -3.3,-0.6 -4.2,-2.5 -0.6,-1.4 -1.4,-2.5 -1.8,-2.5 -1.2,0 -3.6,3.3 -5,6.7 -1.4,3.6 -2.5,4.1 -3.4,1.8 -1.4,-3.7 -7.5,-0.5 -7.6,4 0,2.8 -3.7,8.5 -5.5,8.5 -3.2,0 -1.4,-7.3 3.9,-15.2 1.7,-2.7 1.7,-2.7 -1.3,-4.3 -3.8,-1.9 -3.8,-2.7 -0.5,-7.1 1.4,-1.8 2.4,-4 2.1,-4.8 -0.8,-2 -10.7,-8.6 -12.9,-8.6 -0.9,0 -2.2,0.6 -2.8,1.2 z"
     id="path222"
     style="fill:#0fa7f3;stroke:none;stroke-width:0.1;fill-opacity:1" />
  <g
     id="g1531"
     style="fill:#0fa7f3;fill-opacity:1"
     inkscape:export-xdpi="25"
     inkscape:export-ydpi="25">
    <path
       d="m 255.5,326.3 c -0.9,1.5 -3.7,9.1 -6.1,16.9 -5.6,18.1 -5.7,22.9 -1.1,31.2 1.8,3.3 3.8,6.1 4.5,6.4 1.5,0.5 10,-8.1 11.2,-11.4 1.6,-4.2 1.1,-10.7 -2.1,-27.2 -3.6,-18.6 -4,-19.5 -6.4,-15.9 z"
       id="path134"
       style="fill:#0fa7f3;stroke:none;stroke-width:0.1;fill-opacity:1" />
    <path
       d="m 198.6,349.7 c -0.3,2.1 -0.6,6.2 -0.6,9.1 0,6 1.9,8.5 8.9,11.7 4.9,2.1 6.5,1.3 8.2,-4.5 2.2,-7.3 -0.2,-12.5 -7.9,-17.4 -5.9,-3.7 -7.8,-3.5 -8.6,1.1 z"
       id="path142"
       style="fill:#0fa7f3;stroke:none;stroke-width:0.1;fill-opacity:1" />
    <path
       d="m 300.4,356.5 c -5.9,2.9 -7.4,5.5 -7.4,12.6 0,6.6 1.3,8.9 5.1,8.9 3.4,0 9.8,-3 11.9,-5.5 1.6,-1.9 1.6,-8.6 0,-14.6 -1.3,-4.7 -2.6,-4.9 -9.6,-1.4 z"
       id="path144"
       style="fill:#0fa7f3;stroke:none;stroke-width:0.1;fill-opacity:1" />
    <path
       d="m 227.3,360.2 c -1.1,1.3 -3.6,5.3 -5.7,9 -2,3.7 -4.5,7.2 -5.4,7.7 -0.9,0.4 -6.4,1.1 -12.1,1.5 -5.7,0.3 -11,1.1 -11.8,1.7 -1.7,1.5 -1.7,9.3 0,10.7 0.7,0.6 6.2,1.3 12.1,1.4 l 10.8,0.3 4.2,10.5 c 5.8,14.2 8.9,20.1 12.9,24.4 3.7,3.8 7.3,4.7 8.4,1.9 1.1,-2.8 -2.7,-15.1 -8.7,-28.5 l -5.8,-12.7 5.9,-11.6 c 3.3,-6.3 5.9,-12.2 5.9,-13 0,-1.5 -5.5,-5.5 -7.6,-5.5 -0.6,0 -2,1 -3.1,2.2 z"
       id="path146"
       style="fill:#0fa7f3;stroke:none;stroke-width:0.1;fill-opacity:1" />
    <path
       d="m 274.8,363.6 c -3.8,2 -3.6,4.2 1.3,17.4 l 4,11 -5.7,9.3 c -3.1,5 -6.8,10.6 -8.1,12.4 -2.5,3.2 -6.4,18.6 -5.1,19.9 1.5,1.4 5.6,-0.7 10.2,-5.3 4.5,-4.6 11.8,-15.6 16.6,-25.3 1.2,-2.5 2.3,-4.6 2.5,-4.7 0.1,-0.2 4.9,0.4 10.8,1.2 5.8,0.8 11.3,1.2 12.1,0.9 1.2,-0.4 1.6,-2 1.6,-5.5 0,-6.1 -1.5,-7.2 -12.9,-9.3 -4.6,-0.8 -9.3,-2.2 -10.5,-3 -1.2,-0.7 -3.4,-4.6 -5,-8.4 -2.9,-7.5 -6,-12.2 -7.9,-12.2 -0.7,0.1 -2.4,0.8 -3.9,1.6 z"
       id="path148"
       style="fill:#0fa7f3;stroke:none;stroke-width:0.1;fill-opacity:1" />
    <path
       d="m 238.2,378.6 c -3,2.1 -2.8,4.7 1.2,12.9 4.5,9.4 5.4,12.5 6.5,22.6 1,9.1 2.6,13.9 4.7,13.9 2.4,0 5.5,-6 7.1,-13.7 1.7,-8.4 4,-13.7 9.7,-22.2 2,-2.9 3.6,-6.1 3.6,-7 0,-0.9 -1.3,-3.2 -2.8,-5 -3.4,-4 -4.6,-3.7 -11.1,3.4 -2.4,2.6 -4.4,4.5 -4.5,4.3 -0.1,-0.2 -1.5,-2.1 -3,-4.3 -4.9,-6.9 -7.2,-7.9 -11.4,-4.9 z"
       id="path152"
       style="fill:#0fa7f3;stroke:none;stroke-width:0.1;fill-opacity:1" />
    <path
       d="m 151.7,385.1 c 5,7.8 22.7,29.1 25.5,30.5 2.1,1.1 4.5,1.4 7.3,1.1 7,-1 9.5,-2.4 9.5,-5.1 0,-3.9 -3.8,-13 -6.3,-15.4 -3.4,-3.2 -31.2,-14.2 -35.9,-14.2 -2,0 -2,0 -0.1,3.1 z"
       id="path154"
       style="fill:#0fa7f3;stroke:none;stroke-width:0.1;fill-opacity:1" />
    <path
       d="m 336.3,399.5 c -17,4 -19.6,5.3 -22.4,10.7 -6.4,12.6 -5.7,15 4.5,15.6 5.9,0.4 7.1,0.1 10.7,-2.3 9.1,-6 26.7,-24.5 25.3,-26.6 -0.8,-1.3 -2.6,-1.1 -18.1,2.6 z"
       id="path156"
       style="fill:#0fa7f3;stroke:none;stroke-width:0.1;fill-opacity:1" />
    <path
       d="m 201.5,399 c -4.9,1.9 -5.1,3.2 -2.9,16.7 l 0.7,4.3 h -5.7 c -7.5,0 -9.6,1.2 -9.6,5.3 0,5.8 1.5,6.8 12.5,7.7 8.6,0.7 10.9,1.3 17,4.5 8.3,4.4 11.7,5.5 14.5,4.8 3.6,-1 2.3,-4.7 -5.1,-13.9 -8.4,-10.5 -11.1,-15 -13.4,-22.4 -1.5,-4.9 -3.8,-8.1 -5.4,-7.9 -0.3,0 -1.5,0.4 -2.6,0.9 z"
       id="path160"
       style="fill:#0fa7f3;stroke:none;stroke-width:0.1;fill-opacity:1" />
    <path
       d="m 298.4,405.8 c -0.7,0.4 -3.1,4.7 -5.3,9.7 -4.7,10.1 -6.3,12.1 -10.7,14 -6.5,2.7 -13.2,12.1 -10.6,14.7 1.7,1.7 12.8,0.5 15.2,-1.7 2.3,-2.1 3.6,-2.2 19.4,-1.5 7.8,0.3 9,0.1 10.2,-1.5 3.4,-4.6 1.1,-8.7 -6.1,-11.3 -5.8,-2.1 -6.4,-3.6 -4.5,-12.2 l 1.2,-5.4 -3.1,-2.8 c -3.3,-3 -3.9,-3.2 -5.7,-2 z"
       id="path164"
       style="fill:#0fa7f3;stroke:none;stroke-width:0.1;fill-opacity:1" />
    <path
       d="m 166.1,423.1 c -3,2.8 -2.5,5.1 3.5,17.9 l 4.6,9.8 -5.2,7.7 c -6.7,10 -8.5,14.2 -6.9,16.1 3.8,4.5 6.9,3.7 13.1,-3.3 1.8,-2 5,-5.5 7,-7.7 l 3.6,-4.1 15.9,-0.1 c 13,0 16.5,-0.4 19.6,-1.8 4.1,-2 4.7,-4.4 1.8,-7 -3.2,-2.9 -10.9,-4.6 -24.2,-5.3 l -12.8,-0.6 -6.4,-11.6 c -7,-12.8 -9,-14.3 -13.6,-10 z"
       id="path172"
       style="fill:#0fa7f3;stroke:none;stroke-width:0.1;fill-opacity:1" />
    <path
       d="m 327,434.2 c -1.2,1.3 -4.5,6.3 -7.3,11.1 -4.3,7.3 -5.5,8.7 -7.2,8.2 -1.1,-0.2 -8.3,-0.8 -16,-1.1 -15,-0.7 -17.7,-0.2 -21.8,4.4 -1.8,2 -1.8,2.1 0.5,3.6 4.3,2.8 10.6,4.5 21,5.6 16.5,1.7 17.3,2.1 20.9,9.3 4.2,8.3 8.7,14.7 10.3,14.7 2.1,0 6.6,-4 6.6,-5.8 0,-0.9 -2.1,-6.4 -4.5,-12.1 l -4.5,-10.4 6,-10.2 c 3.3,-5.6 6,-11 6,-12.1 0,-2.1 -4.8,-7.4 -6.8,-7.4 -0.6,0 -2.1,1 -3.2,2.2 z"
       id="path176"
       style="fill:#0fa7f3;stroke:none;stroke-width:0.1;fill-opacity:1" />
    <path
       d="m 243,438.7 c -4.7,2.4 -10,11.3 -10,16.8 0,4.7 4.7,13.6 8.5,16.1 3.8,2.5 13.7,1.5 17.1,-1.7 6.2,-5.8 7.8,-13.4 4.5,-21.2 -4,-9.2 -12.8,-13.6 -20.1,-10 z"
       id="path180"
       style="fill:#0fa7f3;stroke:none;stroke-width:0.1;fill-opacity:1" />
    <path
       d="m 146.3,442.1 c -3.5,2.2 -6.5,4.4 -6.8,4.8 -0.8,1.4 11.2,12.1 13.5,12.1 4.5,0 16,-8.6 14.6,-10.9 -1,-1.6 -12.7,-10.1 -14,-10.1 -0.6,0 -3.9,1.8 -7.3,4.1 z"
       id="path182"
       style="fill:#0fa7f3;stroke:none;stroke-width:0.1;fill-opacity:1" />
    <path
       d="m 336,457.1 -6.3,4 5.9,6 c 3.3,3.4 6.7,5.9 7.9,5.9 1.1,0 4.8,-1.8 8.3,-4 7.5,-4.7 7.8,-6.4 2.2,-12 -5.5,-5.5 -9.4,-5.5 -18,0.1 z"
       id="path190"
       style="fill:#0fa7f3;stroke:none;stroke-width:0.1;fill-opacity:1" />
    <path
       d="m 218,465.9 c -1.4,0.4 -4.4,1.8 -6.7,2.9 -4.8,2.5 -10,2.8 -20.4,1 -6.6,-1.2 -7.2,-1.1 -8.5,0.7 -0.8,1 -1.4,3.4 -1.4,5.2 0,2.7 0.6,3.7 3.1,5.2 1.7,1.1 4.7,2.2 6.6,2.6 1.9,0.3 3.7,1.3 4,2.1 0.3,0.9 -0.5,4.7 -1.8,8.6 l -2.4,7 2.9,2.4 c 4.6,4.1 6.5,3 11.6,-6.6 4.4,-8.2 7.8,-12.3 17.4,-20.5 3.7,-3.2 4.7,-4.7 4.9,-7.5 0.2,-3.3 0,-3.5 -3.3,-3.7 -1.9,-0.1 -4.6,0.2 -6,0.6 z"
       id="path194"
       style="fill:#0fa7f3;stroke:none;stroke-width:0.1;fill-opacity:1" />
    <path
       d="m 269.6,471.9 c -1.3,2 3,8.9 9.4,15.1 6,5.8 7,7.3 8.9,13.5 2.8,9.1 4.5,11.5 7.9,11.5 5.5,0 6.8,-3 4.7,-11.1 -0.9,-3.3 -1.3,-6.3 -1.1,-6.8 0.3,-0.5 2.9,-1.1 5.7,-1.5 6.7,-0.9 10.4,-4.3 9.5,-8.9 -0.9,-4.8 -2.7,-5.6 -12.4,-5.4 -8.1,0.1 -9.2,-0.2 -16.1,-3.6 -7.3,-3.6 -15.2,-5 -16.5,-2.8 z"
       id="path196"
       style="fill:#0fa7f3;stroke:none;stroke-width:0.1;fill-opacity:1" />
    <path
       d="m 228.3,482.3 c -2.1,1.9 -7.2,8.7 -11.3,15 -4.1,6.4 -8.7,12.3 -10.1,13.1 -1.8,1.1 -5.2,1.6 -10.2,1.6 -4.2,0 -8.7,0.4 -10,0.9 -3.2,1.2 -4.4,5.9 -2.5,9.8 1.3,2.7 1.6,2.8 10.9,3.3 6.4,0.3 10.2,1 11.4,2 1,0.8 3.7,5.6 6,10.5 5,10.6 6.4,12.2 9.7,10.4 6.8,-3.5 6.8,-4.3 0.1,-18.8 l -4.3,-9.4 6.4,-10.7 c 7.9,-12.9 12.4,-22.3 12.8,-27 0.3,-3.1 0,-3.5 -2.4,-3.8 -1.9,-0.2 -3.7,0.7 -6.5,3.1 z"
       id="path200"
       style="fill:#0fa7f3;stroke:none;stroke-width:0.1;fill-opacity:1" />
    <path
       d="m 258.4,482.5 c -1.1,6.3 0,14.3 2.5,16.9 1.2,1.3 4.4,7.2 7,13.1 l 4.9,10.9 -5.4,10.1 c -3,5.6 -5.4,11.4 -5.4,12.9 0,3.2 4.2,7.8 6.4,7 0.8,-0.3 4.2,-4.8 7.5,-9.9 3.3,-5.2 7,-9.9 8.1,-10.5 1.6,-0.8 4.6,-0.8 11.6,0.1 7.3,0.9 9.8,0.9 10.7,0 1.7,-1.7 1.2,-8.9 -0.7,-11 -2,-2.2 -8.8,-4.1 -14.6,-4.1 -4.8,0 -8.2,-2.8 -10.7,-8.8 -6.6,-16 -15.9,-30.2 -19.8,-30.2 -0.8,0 -1.7,1.5 -2.1,3.5 z"
       id="path202"
       style="fill:#0fa7f3;stroke:none;stroke-width:0.1;fill-opacity:1" />
    <path
       d="m 244.1,486 c -1.3,2.3 -2.7,7.3 -3.3,11.3 -1.2,9.1 -3.2,13.6 -9.7,21.6 -2.8,3.5 -5.1,6.9 -5.1,7.6 0,1.7 5.7,6.5 7.7,6.5 0.9,0 3.8,-2.3 6.6,-5 2.8,-2.8 5.3,-4.7 5.7,-4.3 0.4,0.4 2.1,2.7 3.9,5.1 3.6,4.6 6.8,6 9.9,4.3 3.8,-2 3.6,-4.7 -1.3,-14.4 -3.8,-7.6 -4.7,-10.7 -5.5,-17.7 -1.2,-11.1 -3.6,-19 -5.9,-19 -0.4,0 -1.8,1.8 -3,4 z"
       id="path204"
       style="fill:#0fa7f3;stroke:none;stroke-width:0.1;fill-opacity:1" />
    <path
       d="m 168.4,487.8 c -4.5,3.3 -22.8,22.2 -24.4,25.2 -1,1.9 -0.9,2 3.2,1.4 10.4,-1.5 29.2,-5.6 31.8,-6.9 3.4,-1.7 6.1,-5.4 9.5,-12.6 2.9,-6.3 2.4,-7.3 -4.6,-8.8 -8,-1.7 -11.2,-1.4 -15.5,1.7 z"
       id="path206"
       style="fill:#0fa7f3;stroke:none;stroke-width:0.1;fill-opacity:1" />
    <path
       d="m 304.6,501.2 c 2.3,7.9 5.2,13.4 8,15.3 2.7,1.8 22.4,9.6 29.2,11.6 2.3,0.7 4.5,0.9 4.9,0.6 1.5,-1.6 -18.1,-27.8 -23.1,-30.8 -2.4,-1.5 -5,-1.9 -11.8,-1.9 h -8.7 z"
       id="path214"
       style="fill:#0fa7f3;stroke:none;stroke-width:0.1;fill-opacity:1" />
    <path
       d="m 239.6,534.1 c -5,6 -5.9,8.7 -5.3,16.4 0.9,9.6 4.5,30.7 6.2,35.3 l 1.3,3.7 1.5,-3.5 c 2,-4.7 10.3,-31.5 11.2,-36.1 0.7,-3.9 -1.4,-9.3 -6.2,-15.7 -3,-4 -5.4,-4.1 -8.7,-0.1 z"
       id="path226"
       style="fill:#0fa7f3;stroke:none;stroke-width:0.1;fill-opacity:1" />
    <path
       d="m 196.3,534.4 c -9.4,4.4 -10.6,7.2 -8.2,18.6 0.7,3.2 1.6,5 2.5,5 2.2,0 10.6,-4.5 12.6,-6.7 3.4,-3.8 3.2,-18.4 -0.3,-19.1 -0.8,-0.1 -3.7,0.9 -6.6,2.2 z"
       id="path230"
       style="fill:#0fa7f3;stroke:none;stroke-width:0.1;fill-opacity:1" />
    <path
       d="m 284.6,542.2 c -1,1.4 -1.6,4.4 -1.6,7.9 0,6.8 2.5,10.4 9,13.4 5.7,2.6 7.3,1.4 8.3,-6.1 1.1,-7.7 -0.1,-10.7 -6,-14.4 -5.6,-3.6 -7.7,-3.7 -9.7,-0.8 z"
       id="path236"
       style="fill:#0fa7f3;stroke:none;stroke-width:0.1;fill-opacity:1" />
  </g>
  <g
     id="g1501"
     style="fill:#0fa7f3;fill-opacity:1"
     inkscape:export-xdpi="25"
     inkscape:export-ydpi="25">
    <path
       d="m 1036.6,376.5 c -3.7,8.6 -10.8,33.3 -11,37.5 -0.1,3.6 0.6,5.6 3.7,10.3 5.7,8.8 7.7,8.8 13.6,0.1 3.2,-4.8 3.3,-5.1 2.7,-12.4 -0.7,-9.5 -4.3,-30.9 -6,-35.8 l -1.3,-3.7 z"
       id="path150"
       style="fill:#0fa7f3;stroke:none;stroke-width:0.1;fill-opacity:1" />
    <path
       d="m 981.2,398.2 c -1.6,2 -2.5,12 -1.3,15.1 1.1,2.9 9.3,8.7 12.2,8.7 3,0 4.9,-4 4.9,-10.1 0,-6.7 -2.2,-10.2 -8.4,-13 -4.9,-2.2 -6,-2.3 -7.4,-0.7 z"
       id="path158"
       style="fill:#0fa7f3;stroke:none;stroke-width:0.1;fill-opacity:1" />
    <path
       d="m 1083.5,406.2 c -6.2,3.2 -8.2,5.5 -9,10.5 -0.8,5.7 0.3,12.3 2.2,13 1.8,0.7 10.6,-3.3 13.9,-6.4 2.7,-2.5 3.1,-6.1 1.3,-14.3 -1.2,-5.7 -2.2,-6.1 -8.4,-2.8 z"
       id="path162"
       style="fill:#0fa7f3;stroke:none;stroke-width:0.1;fill-opacity:1" />
    <path
       d="m 1010.7,409.3 c -0.8,0.7 -4,5.1 -7.1,9.9 -3,4.8 -6.5,9.2 -7.6,9.8 -1.6,0.8 -4.6,0.8 -11.6,-0.1 -11,-1.4 -11.9,-1 -11.8,5.2 0.2,6.6 5.3,9.8 15.7,9.9 2.1,0 4.8,0.5 5.9,1.1 1.2,0.6 4.4,6.1 7.6,12.7 7.4,15.7 14.1,25.2 17.9,25.2 3.4,0 2.9,-16.7 -0.6,-20.4 -1.2,-1.3 -4.4,-7.2 -7,-13.1 l -4.9,-10.9 5.4,-10.1 c 3,-5.6 5.4,-11.2 5.4,-12.4 0,-5 -4.4,-9.1 -7.3,-6.8 z"
       id="path168"
       style="fill:#0fa7f3;stroke:none;stroke-width:0.1;fill-opacity:1" />
    <path
       d="m 1055.9,414.3 c -4.4,3 -4.2,4.8 1.6,17.4 l 4.5,9.6 -6.9,11.6 c -8.3,13.9 -11.8,21.4 -12.3,26.1 -0.3,3.1 0,3.5 2.4,3.8 3.9,0.5 8.7,-4.3 17.2,-17.3 9.7,-14.7 10.8,-15.5 20.7,-15.5 10.3,0 12.6,-1 13.5,-5.5 0.4,-2.5 0.1,-4.2 -1,-6 -1.5,-2.3 -2.2,-2.5 -9.9,-2.5 -4.5,0 -9.3,-0.6 -10.7,-1.3 -1.7,-0.8 -4,-4.3 -7,-10.3 -4.5,-9.1 -6.6,-12.4 -8,-12.4 -0.4,0 -2.2,1 -4.1,2.3 z"
       id="path170"
       style="fill:#0fa7f3;stroke:none;stroke-width:0.1;fill-opacity:1" />
    <path
       d="m 1019,430 c -1.1,1.1 -2,2.5 -2,3.2 0,0.6 2,5.2 4.5,10.2 3.8,7.5 4.7,10.6 5.5,17.6 1.2,11.1 3.6,19 5.9,19 1.8,0 5.4,-8.6 6.3,-15.3 1.2,-9.1 3.2,-13.6 9.7,-21.6 2.8,-3.5 5.1,-6.9 5.1,-7.7 0,-2.2 -6.7,-6.6 -8.9,-5.9 -1,0.3 -3.8,2.6 -6.2,5.2 l -4.2,4.6 -2.1,-2.9 c -5.9,-8.3 -9.9,-10.1 -13.6,-6.4 z"
       id="path174"
       style="fill:#0fa7f3;stroke:none;stroke-width:0.1;fill-opacity:1" />
    <path
       d="m 933,433.7 c 0,1.3 9.1,14.4 15.6,22.5 7.1,8.7 9.2,9.8 19.8,9.8 h 8.4 l -1.8,-6 c -4.1,-13.4 -5.3,-14.5 -25.3,-22 -11.9,-4.5 -16.7,-5.7 -16.7,-4.3 z"
       id="path178"
       style="fill:#0fa7f3;stroke:none;stroke-width:0.1;fill-opacity:1" />
    <path
       d="m 1123.5,449.1 c -6,1.1 -14,2.8 -17.7,3.9 -7.5,2.3 -9.8,4.5 -14.2,14 -2.1,4.5 -2.3,5.7 -1.2,6.8 1.8,1.8 13.4,3.7 17.1,2.8 3.1,-0.7 25.9,-22.8 28.4,-27.4 1.4,-2.7 2.1,-2.7 -12.4,-0.1 z"
       id="path184"
       style="fill:#0fa7f3;stroke:none;stroke-width:0.1;fill-opacity:1" />
    <path
       d="m 980.4,450.8 c -2.1,1.4 -2.4,4.5 -0.9,10.3 0.9,3.3 1.3,6.3 1.1,6.8 -0.3,0.5 -2.9,1.1 -5.7,1.5 -6.7,0.9 -10.4,4.3 -9.5,8.9 0.9,4.8 2.8,5.6 12.6,5.5 8.2,-0.2 9.1,0 15.8,3.5 7,3.7 15.3,5 16.6,2.8 1.3,-2 -3,-8.9 -9.4,-15.1 -6,-5.8 -7,-7.3 -8.9,-13.5 -2.8,-9.1 -4.5,-11.5 -7.9,-11.5 -1.5,0 -3.2,0.4 -3.8,0.8 z"
       id="path188"
       style="fill:#0fa7f3;stroke:none;stroke-width:0.1;fill-opacity:1" />
    <path
       d="m 1079.3,457.2 c -0.6,0.7 -2.8,4.7 -4.9,8.8 -3.9,7.5 -8.7,13 -15.8,18.4 -4,3 -7.1,8.8 -6.1,11.4 0.8,2.1 8.5,1 15.5,-2.2 6.2,-2.9 10.6,-3.2 21.1,-1.4 6.6,1.2 7.2,1.1 8.5,-0.7 2,-2.7 1.7,-7.2 -0.6,-9.5 -1.1,-1.1 -4,-2.5 -6.6,-3.1 -2.5,-0.7 -4.8,-1.8 -5.1,-2.6 -0.3,-0.8 0.5,-4.6 1.8,-8.5 l 2.4,-7 -2.8,-2.4 c -3.1,-2.6 -5.9,-3.1 -7.4,-1.2 z"
       id="path192"
       style="fill:#0fa7f3;stroke:none;stroke-width:0.1;fill-opacity:1" />
    <path
       d="m 948.6,474.1 c -1.4,1.1 -2.6,2.8 -2.6,3.7 0,0.9 2.1,6.4 4.5,12.1 l 4.5,10.4 -6,10.2 c -3.3,5.6 -6,11 -6,12.1 0,2.1 4.8,7.4 6.8,7.4 1.9,0 5,-4 10.5,-13.3 4.3,-7.3 5.5,-8.7 7.2,-8.2 1.1,0.2 8.3,0.8 16,1.1 15,0.7 17.7,0.2 21.8,-4.4 1.8,-1.9 1.8,-2 -0.4,-3.6 -4,-2.8 -11,-4.5 -24.2,-6 -7,-0.8 -13.2,-1.8 -13.7,-2.1 -0.6,-0.4 -2.4,-3.4 -4.2,-6.8 -4.1,-8.3 -8.6,-14.7 -10.2,-14.7 -0.7,0 -2.5,0.9 -4,2.1 z"
       id="path198"
       style="fill:#0fa7f3;stroke:none;stroke-width:0.1;fill-opacity:1" />
    <path
       d="m 1106.3,489.2 c -2.2,2.4 -5.8,6.3 -8.1,8.8 l -4.1,4.5 h -15.4 c -12.9,0 -16,0.3 -19.5,1.9 -4.6,2.1 -5.3,4.3 -2.3,7 3.2,2.9 11.1,4.6 24.3,5.3 l 12.7,0.6 6.4,11.6 c 7,12.8 9,14.3 13.6,10 3,-2.8 2.5,-5.1 -3.5,-17.9 l -4.6,-9.8 5,-7.3 c 2.8,-4.1 5.8,-9.1 6.8,-11.1 1.7,-3.6 1.7,-3.8 -0.1,-5.8 -3,-3.3 -6.7,-2.6 -11.2,2.2 z"
       id="path208"
       style="fill:#0fa7f3;stroke:none;stroke-width:0.1;fill-opacity:1" />
    <path
       d="m 928.3,493 c -7.6,4.7 -7.9,6.4 -2.3,12 5.5,5.5 9.4,5.5 18,-0.1 l 6.3,-4 -5.9,-6 c -3.3,-3.4 -6.7,-5.9 -7.9,-5.9 -1.1,0 -4.8,1.8 -8.2,4 z"
       id="path210"
       style="fill:#0fa7f3;stroke:none;stroke-width:0.1;fill-opacity:1" />
    <path
       d="m 1025,489.7 c -4.8,1.8 -10,10 -10,15.7 0,4.8 4.1,13.8 7.2,15.8 1.4,0.9 4.4,2.1 6.7,2.8 3.6,0.9 4.8,0.8 7.9,-0.7 4.9,-2.4 10.2,-11.1 10.2,-16.8 0,-4.5 -4.6,-13.4 -8.2,-15.9 -2.2,-1.6 -10.5,-2.1 -13.8,-0.9 z"
       id="path212"
       style="fill:#0fa7f3;stroke:none;stroke-width:0.1;fill-opacity:1" />
    <path
       d="m 1120,505.9 c -2.5,1.5 -5.4,3.8 -6.5,5.1 l -2,2.2 4.5,3.8 c 2.5,2.2 5.9,4.7 7.6,5.6 l 3.2,1.7 7.1,-4.4 c 3.9,-2.4 7.1,-4.6 7.1,-5 0,-0.3 -2.7,-3.1 -5.9,-6.2 -6.9,-6.6 -8.6,-6.9 -15.1,-2.8 z"
       id="path216"
       style="fill:#0fa7f3;stroke:none;stroke-width:0.1;fill-opacity:1" />
    <path
       d="m 995,518.5 c -5.6,3.2 -7.1,3.5 -16.8,2.7 -5.3,-0.5 -10.7,-0.6 -12,-0.4 -2.9,0.6 -4.7,4.2 -3.8,7.7 0.6,2.4 1.8,3.2 9.9,6.4 3.1,1.2 3.5,4.1 1.5,11.8 -1.1,4.5 -1.1,4.7 2.1,7.5 1.7,1.5 3.8,2.8 4.6,2.8 1,0 3.3,-3.7 6.1,-9.7 5,-10.9 6.5,-12.9 11,-14.8 6.1,-2.5 12.8,-11.4 10.9,-14.4 -0.9,-1.6 -10.6,-1.3 -13.5,0.4 z"
       id="path218"
       style="fill:#0fa7f3;stroke:none;stroke-width:0.1;fill-opacity:1" />
    <path
       d="m 1051.8,519.7 c -3.5,0.9 -1.9,5 5.3,14 8.4,10.3 11,14.8 13.4,22.3 1,3 2.2,6.1 2.8,6.7 1.4,1.9 4.1,1.6 7.2,-0.9 2.9,-2.3 2.9,-1.8 0.8,-16.1 l -0.5,-3.7 h 5.7 c 7.4,0 9.5,-1.2 9.5,-5.3 0,-5.8 -1.5,-6.8 -12.5,-7.7 -8.7,-0.7 -10.8,-1.3 -17.5,-4.8 -7.9,-4.1 -11.4,-5.2 -14.2,-4.5 z"
       id="path220"
       style="fill:#0fa7f3;stroke:none;stroke-width:0.1;fill-opacity:1" />
    <path
       d="m 1014.5,529 c -4.2,1.7 -11.7,10.9 -17.9,21.9 -3.6,6.2 -6.7,11.8 -6.8,12.3 -0.2,0.6 -4.3,0.4 -11,-0.6 -5.9,-0.9 -11.4,-1.3 -12.2,-1 -1.2,0.4 -1.6,2 -1.6,5.5 0,6.1 1.5,7.2 12.9,9.3 4.6,0.8 9.3,2.2 10.5,2.9 1.1,0.8 3.6,5 5.4,9.4 1.8,4.4 4.1,8.8 5.2,9.8 1.9,1.7 2.2,1.8 5.5,0.2 4.6,-2.2 4.5,-3.9 -0.5,-17.6 l -4,-11 5.6,-9.2 c 3.1,-5.1 6.7,-10.7 8,-12.4 2.2,-3 5.4,-13.5 5.4,-18.3 0,-2.3 -1.2,-2.6 -4.5,-1.2 z"
       id="path224"
       style="fill:#0fa7f3;stroke:none;stroke-width:0.1;fill-opacity:1" />
    <path
       d="m 1039.3,532.7 c -1.1,2.8 2.7,15.1 8.7,28.5 l 5.8,12.7 -6.1,11.9 c -3.6,7.2 -5.8,12.6 -5.4,13.6 0.4,0.9 2.2,2.4 4.1,3.3 3.4,1.6 3.7,1.6 5.6,-0.2 1.1,-1 3.8,-5.1 6,-9.1 2.2,-4 4.8,-7.7 5.8,-8.2 0.9,-0.5 6.4,-1.2 12.1,-1.5 5.6,-0.4 10.9,-1.2 11.7,-1.8 1.8,-1.5 1.8,-9.3 0.1,-10.7 -0.7,-0.6 -6.2,-1.3 -12.1,-1.4 l -10.8,-0.3 -4.2,-10.5 c -5.8,-14.2 -8.9,-20.1 -12.9,-24.4 -3.7,-3.8 -7.3,-4.7 -8.4,-1.9 z"
       id="path228"
       style="fill:#0fa7f3;stroke:none;stroke-width:0.1;fill-opacity:1" />
    <path
       d="m 1026,537 c -1.1,1.6 -2.6,5.5 -3.2,8.7 -1.6,9.1 -3.7,14.2 -8.9,22.3 -2.7,4.1 -4.9,8.1 -4.9,9 0,0.9 1.3,3.1 2.8,4.9 3.4,4 4.6,3.7 11.1,-3.4 2.4,-2.6 4.4,-4.5 4.5,-4.3 1.6,2.6 6.3,8.6 7.4,9.5 3.5,2.9 9.2,0.2 9.2,-4.3 0,-1 -1.5,-5.1 -3.4,-8.9 -4.5,-9.4 -5.4,-12.5 -6.5,-22.6 -1.5,-13.6 -3.9,-16.8 -8.1,-10.9 z"
       id="path232"
       style="fill:#0fa7f3;stroke:none;stroke-width:0.1;fill-opacity:1" />
    <path
       d="m 950.1,539 c -6.3,4.6 -21.3,19.3 -23.4,22.9 -1.5,2.6 -1.6,3.2 -0.4,3.6 1.8,0.8 28.1,-5.1 33.4,-7.5 4.3,-1.9 6.8,-5.5 9.8,-14.1 2,-5.6 0.5,-7 -8.1,-7.6 -6.5,-0.5 -7.1,-0.3 -11.3,2.7 z"
       id="path234"
       style="fill:#0fa7f3;stroke:none;stroke-width:0.1;fill-opacity:1" />
    <path
       d="m 1090.5,546.4 c -4.8,1.4 -5.4,3.4 -3,10.7 2.6,7.7 5.4,10.2 15.8,14.4 12.4,5 22.6,8.5 25,8.5 1.9,0 1.9,-0.1 -0.1,-3.1 -4.5,-7.2 -21.9,-28.2 -24.8,-30 -3.5,-2.1 -7.1,-2.3 -12.9,-0.5 z"
       id="path238"
       style="fill:#0fa7f3;stroke:none;stroke-width:0.1;fill-opacity:1" />
    <path
       d="m 1021.4,585.6 c -5.3,5.5 -6.4,7.9 -6.4,14 0,4.7 5.6,34.9 7,37.3 1.3,2.5 3.9,-3 8.6,-18.1 5.6,-18.1 5.7,-22.9 1.1,-31.2 -1.8,-3.3 -3.8,-6.1 -4.5,-6.4 -0.6,-0.2 -3.2,1.8 -5.8,4.4 z"
       id="path240"
       style="fill:#0fa7f3;stroke:none;stroke-width:0.1;fill-opacity:1" />
    <path
       d="m 975.5,585.9 c -2.2,1 -4.7,2.6 -5.5,3.6 -2.8,3.4 -0.5,18.5 2.8,18.5 3.3,0 11.9,-5 13,-7.6 1.5,-3.1 1.6,-11.9 0.2,-14.5 -1.3,-2.4 -5.2,-2.4 -10.5,0 z"
       id="path246"
       style="fill:#0fa7f3;stroke:none;stroke-width:0.1;fill-opacity:1" />
    <path
       d="m 1066.3,592.7 c -2.5,3.8 -2.4,12 0.2,15.4 2.4,3.2 9.8,7.9 12.4,7.9 2.1,0 3.1,-4.1 3.1,-12.8 0,-5.9 -1.4,-7.8 -7.9,-11.2 -5.2,-2.6 -5.7,-2.5 -7.8,0.7 z"
       id="path248"
       style="fill:#0fa7f3;stroke:none;stroke-width:0.1;fill-opacity:1" />
  </g>
  <g
     id="g1474"
     style="fill:#0fa7f3;fill-opacity:1"
     inkscape:export-xdpi="25"
     inkscape:export-ydpi="25">
    <path
       d="m 650.8,587 c -4.5,4.8 -4.7,7.2 -1.4,13.8 2.6,5 5.2,7.1 10.1,8.2 2.6,0.6 2.2,0.7 -2.8,1.4 -6.4,0.8 -7.3,1.8 -6.3,7.1 0.7,3.7 1.3,4 10.1,5 l 5.9,0.7 -3.2,1.4 c -3.9,1.6 -4.1,3.6 -0.6,6.3 3.5,2.7 10.7,2.8 15,0.2 3.8,-2.3 7.4,-9.4 7.4,-14.4 0,-4.6 -1.5,-5.5 -5.1,-2.8 -1.5,1.1 -3,2.1 -3.2,2.1 -0.2,0 0.9,-2.5 2.5,-5.6 3.2,-6.5 3.8,-13.4 1.2,-15.5 -1.4,-1.1 -2,-0.9 -4.8,2.1 -1.7,1.9 -3.9,4.6 -4.8,6 l -1.8,2.5 0.7,-3 c 1.8,-7.9 -0.1,-14.4 -5.2,-17.5 -5.3,-3.2 -9.2,-2.7 -13.7,2 z"
       id="path242"
       style="fill:#0fa7f3;stroke:none;stroke-width:0.1;fill-opacity:1" />
    <path
       d="m 717.4,584.9 c -4.3,2.6 -5.8,6.8 -5.1,14.4 0.4,5 0.3,5.8 -0.7,4.3 -0.6,-1.1 -2.7,-3.8 -4.7,-5.9 -3.3,-3.7 -3.6,-3.8 -5.2,-2.2 -2.4,2.3 -2.1,6.5 0.8,13.7 1.4,3.4 2.5,6.3 2.5,6.5 0,0.3 -1.2,-0.5 -2.6,-1.6 -3.4,-2.7 -4.2,-2.6 -5.6,0.4 -0.9,2.1 -0.6,3.4 2,8.7 3.5,7.2 7,9.8 13.2,9.8 8.5,0 13.1,-5.3 7.3,-8.4 -2.7,-1.4 -2.7,-1.4 3.2,-2.1 8.2,-0.9 8.2,-0.9 9.4,-5.1 1.3,-4.9 0.4,-6 -6.2,-6.9 -5.2,-0.8 -5.2,-0.8 -1.8,-1.5 1.8,-0.5 4.7,-2.2 6.4,-3.8 5.8,-5.8 4.5,-17.2 -2.3,-20.7 -3.9,-2 -6.8,-1.9 -10.6,0.4 z"
       id="path244"
       style="fill:#0fa7f3;stroke:none;stroke-width:0.1;fill-opacity:1" />
    <path
       d="m 686.5,626.4 c -4.6,9.2 -4.4,11.2 1,10.9 2.8,-0.2 4.5,0.3 6.2,1.9 l 2.2,2.1 1.1,-2.8 c 0.6,-1.6 0.8,-4.2 0.4,-5.9 -0.6,-2.9 -6.1,-13.6 -6.9,-13.6 -0.2,0 -2,3.3 -4,7.4 z"
       id="path250"
       style="fill:#0fa7f3;stroke:none;stroke-width:0.1;fill-opacity:1" />
    <path
       d="m 637.7,636.7 c -1.3,1.2 -0.7,6.1 1.3,10.7 1,2.5 1.7,4.6 1.4,4.6 -0.3,0 -1.9,-1.4 -3.7,-3 -9.8,-9.2 -21.9,-3.3 -20.4,9.9 0.7,5.8 5,10.1 10.3,10.1 4.2,0 6.8,-1.2 11.2,-5.3 3.7,-3.6 3.9,-3.4 1.2,2.4 -2.6,5.9 -2.6,10.6 0,11.4 3.1,1 6.6,-1.8 10.1,-8 1.7,-3 3.2,-5.5 3.4,-5.5 0.1,0 0.2,1.7 0.1,3.7 -0.1,3.4 0.2,3.8 2.4,3.8 3.2,0 8,-6.7 8.7,-12.3 0.7,-5.4 -1.9,-12.3 -5.9,-15.7 -3.9,-3.3 -6.3,-1.9 -5.3,3.2 0.3,1.8 0.4,3.3 0.2,3.3 -0.2,0 -1.7,-1.9 -3.2,-4.3 -5.3,-8.1 -9.5,-11.3 -11.8,-9 z"
       id="path252"
       style="fill:#0fa7f3;stroke:none;stroke-width:0.1;fill-opacity:1" />
    <path
       d="m 665.9,637.9 c -2.1,1.7 -2.2,2.1 -1.1,5.8 1.7,5.7 5.4,10.7 8.1,11.1 2.2,0.3 2.3,0.1 1.9,-4.4 -0.3,-4.5 -0.1,-5 2.5,-6.2 3.4,-1.6 3.4,-3.5 0.1,-6.1 -3.3,-2.6 -8.4,-2.7 -11.5,-0.2 z"
       id="path254"
       style="fill:#0fa7f3;stroke:none;stroke-width:0.1;fill-opacity:1" />
    <path
       d="m 703,638 c -2.5,2.5 -2.3,5.3 0.5,5.8 3.6,0.7 4.5,2.2 3.8,6.7 -0.3,2.3 -0.1,4.5 0.4,4.8 2.8,1.7 9.3,-7.5 9.3,-13 0,-3.3 -2.3,-5 -7.8,-5.9 -3.3,-0.5 -4.4,-0.2 -6.2,1.6 z"
       id="path256"
       style="fill:#0fa7f3;stroke:none;stroke-width:0.1;fill-opacity:1" />
    <path
       d="m 738.2,637.6 c -1.3,0.9 -3.7,4 -5.3,7 -1.7,3 -3.2,5.4 -3.2,5.4 -0.1,0 -0.2,-1.7 -0.2,-3.7 0,-3.4 -0.3,-3.8 -2.5,-3.8 -1.7,0 -3.3,1.2 -5.5,4.3 -2.5,3.7 -3,5.3 -3,10.2 0,4.9 0.5,6.5 3,10.2 2.2,3.1 3.8,4.3 5.5,4.3 2.2,0 2.5,-0.4 2.5,-3.8 0,-2 0.1,-3.7 0.2,-3.7 0,0 1.5,2.4 3.2,5.4 4.4,7.8 8.3,10.2 11.4,7.1 1.7,-1.6 0.9,-6.3 -1.9,-11.8 -1.7,-3.2 -0.5,-3.6 2.2,-0.6 6.6,7.3 16.1,6.2 20.3,-2.4 1.8,-3.7 2,-4.9 1.1,-7.3 -3.7,-9.7 -14.2,-12.1 -21.1,-4.8 -3.5,3.8 -3.9,2.9 -1.2,-3.6 1.8,-4.7 2.1,-6.4 1.3,-8 -1.3,-2.4 -3.8,-2.6 -6.8,-0.4 z"
       id="path258"
       style="fill:#0fa7f3;stroke:none;stroke-width:0.1;fill-opacity:1" />
    <path
       d="m 688.5,642 c -0.4,1.2 -2.4,3.2 -4.5,4.5 -3,1.9 -4.1,3.3 -4.6,6 -1,5.8 0.2,11.8 2.7,13.5 2.9,1.9 9.9,9.1 9.9,10.1 0,0.4 -1.9,0.7 -4.2,0.6 -5.7,-0.3 -6,1.7 -1.2,11 l 3.7,7.4 3.3,-5.3 c 4.3,-6.8 5,-10.6 3,-14.6 -2.3,-4.4 -2,-5.9 1.4,-7.7 3.6,-1.9 5,-5 5,-11 0,-5.5 -1.5,-9.5 -3.5,-9.5 -0.8,0 -3.2,-1.6 -5.4,-3.5 -4.5,-4.1 -4.8,-4.2 -5.6,-1.5 z"
       id="path260"
       style="fill:#0fa7f3;stroke:none;stroke-width:0.1;fill-opacity:1" />
    <path
       d="m 670.7,659.1 c -2.5,1.4 -5.7,8.6 -5.7,12.6 0,3.9 2.1,5.3 7.9,5.3 3.2,0 4.4,-0.5 5.7,-2.5 1.8,-2.7 1.2,-4.3 -2,-5.4 -1.7,-0.7 -2.1,-1.6 -2.1,-5.6 0,-5.1 -0.9,-6.1 -3.8,-4.4 z"
       id="path264"
       style="fill:#0fa7f3;stroke:none;stroke-width:0.1;fill-opacity:1" />
    <path
       d="m 707.4,659.5 c -0.4,0.8 -0.3,3.1 0,5 0.6,3.2 0.5,3.5 -3,5 -3.5,1.4 -3.6,1.6 -2.2,3.7 0.9,1.3 3.2,2.9 5.3,3.6 9.5,3.2 13,-6.6 5.3,-15.3 -3.3,-3.8 -4.6,-4.3 -5.4,-2 z"
       id="path266"
       style="fill:#0fa7f3;stroke:none;stroke-width:0.1;fill-opacity:1" />
    <path
       d="m 662.8,682.6 c -3.4,1.8 -3.6,4.9 -0.5,6.6 2,1.1 1.7,1.3 -4.3,2.3 l -6.4,1 -1.2,4.2 c -1.2,3.9 -1.1,4.4 0.6,5.3 1,0.5 3.5,1 5.4,1 2,0 3.6,0.4 3.6,1 0,0.5 -0.8,1 -1.9,1 -4.3,0 -11.1,8.7 -11.1,14.3 0,3.3 4,8.9 7.4,10.5 4,2 9,0.7 12,-2.9 3.3,-3.9 4,-6.8 3.2,-13.7 l -0.6,-5.7 2.1,3.5 c 4.9,8 9.3,10.3 10.5,5.5 0.9,-3.6 -0.4,-9.3 -3.1,-14.3 -2.3,-4.1 -2,-5.7 0.5,-2.7 0.7,0.8 2.4,1.5 3.7,1.5 2.5,0 2.5,-0.2 2.1,-5 -0.6,-5.8 -4.6,-12.6 -8.4,-14 -3.7,-1.4 -10.5,-1.1 -13.6,0.6 z"
       id="path270"
       style="fill:#0fa7f3;stroke:none;stroke-width:0.1;fill-opacity:1" />
    <path
       d="m 704.3,683 c -5,3 -9.4,13.1 -7.3,17 1.1,2.1 3.2,1.8 6.3,-0.8 2.3,-2 2.2,-1.4 -0.8,5 -2.9,6.2 -3.2,11.9 -0.8,14.4 1.6,1.5 1.8,1.5 4.2,-1.2 1.5,-1.6 3.5,-4.2 4.7,-5.7 l 2,-2.9 -0.4,6.5 c -0.5,7.8 1.4,12 6.3,14.4 2.9,1.4 4.1,1.4 7.5,0.4 4.8,-1.4 7.1,-4.5 7.7,-10.4 0.8,-7.2 -4.6,-14.7 -10.6,-14.7 -2,0 -2.3,-0.2 -1.1,-1 0.8,-0.5 3.1,-1 5.1,-1 4.9,0 5.9,-1.5 4.5,-6.5 -1.2,-4 -1.2,-4 -7.4,-4.8 -6.1,-0.9 -6.2,-0.9 -4.1,-2.6 6.8,-5.5 -7.6,-11.1 -15.8,-6.1 z"
       id="path272"
       style="fill:#0fa7f3;stroke:none;stroke-width:0.1;fill-opacity:1" />
  </g>
  <g
     id="g1460"
     style="fill:#0fa7f3;fill-opacity:1">
    <path
       d="m 1135.2,718 c -1.8,2.3 -3,3 -5.8,3 -5,0 -5.3,2.2 -1,8.4 2,2.9 3.6,5.5 3.6,5.8 0,0.3 -1.1,0.3 -2.4,0.1 -4.8,-1 -4.6,3.9 0.4,10.2 3.2,4 4.2,10.5 1.7,10.5 -1.8,0 -5,-3.6 -7.2,-8 -1,-1.9 -2.4,-4.3 -3.3,-5.3 -1.4,-1.5 -1.8,-1.6 -3.7,-0.3 -2.5,1.7 -4.5,0.5 -4.5,-2.6 0,-1.9 -3.3,-5.8 -5,-5.8 -0.6,0 -1.5,1.1 -2,2.5 -0.6,1.7 -2,2.7 -4,3.2 -3.9,0.7 -5,2.8 -5,9.2 0,6.7 1.4,10.1 4.1,10.1 1.2,0 3.6,1.6 5.4,3.6 3.1,3.3 3.5,3.5 8.1,2.9 5.9,-0.8 10.7,0.7 10.2,3.2 -0.4,2.4 -4.2,3.2 -11.9,2.6 l -6.6,-0.6 0.5,3.3 c 0.5,3.7 -0.8,5 -5.3,5 -5.3,0 -7.2,3.4 -3,5 l 2.5,1 -2,2 c -3.8,3.8 -1.8,10.2 3.5,11.2 1.1,0.2 2.5,1.4 3.2,2.8 1.1,2.3 1.7,2.6 4.1,2.1 0.5,0 1.7,-1.9 2.7,-4.1 1.7,-3.7 2.6,-4.5 4.9,-4.1 3.3,0.7 5.5,-1.2 7,-5.7 1.8,-5.4 4.8,-9.2 7.2,-9.2 2.1,0 1.5,4.2 -1.6,12.5 -4.1,11.1 -3.7,21.5 0.9,21.5 1.2,0 2.1,1.1 2.7,3.1 1.5,5.4 3.5,5.7 8.9,1.6 2.6,-2.1 5.4,-3.7 6.1,-3.7 2.8,0 2.5,-2.3 -1,-7.6 -3.3,-4.9 -3.4,-5.4 -1.5,-5.1 4.2,0.4 4.6,-2.7 1.1,-9.5 -3.2,-6.3 -4.1,-11.1 -2.2,-12.3 0.5,-0.3 2.8,2.4 5.1,6.1 3.3,5.2 5.2,7.1 8.4,8.5 3.3,1.5 4.4,2.6 4.9,5 0.7,3.8 3.5,3.6 5.4,-0.5 1.2,-2.5 1.8,-2.7 4.7,-2.2 5.6,1.1 8.1,-3 5,-8.4 -1.9,-3.3 -1.9,-5 0,-5 2.2,0 1.8,-3.7 -0.4,-5 -1.1,-0.5 -3.6,-1 -5.5,-1 -3.1,0 -3.7,-0.4 -4.2,-2.8 -0.9,-3.6 -2,-4.2 -7.6,-4.2 -7.9,0 -7.6,-3.7 0.3,-4.7 5.1,-0.7 7.1,-1.9 6.7,-4.2 -0.5,-2.9 1,-3.9 5,-3.4 2.8,0.4 4.3,0 5.5,-1.2 2.1,-2 2.2,-3.5 0.2,-3.5 -1.9,0 -1.9,-2.1 0,-4.6 0.8,-1 1.5,-2.9 1.5,-4.2 0,-3 -4.5,-7.5 -6.8,-6.8 -1.2,0.4 -2.1,-0.1 -2.7,-1.7 -1.6,-3.5 -4.7,-2.8 -6.8,1.5 -1.6,3.2 -2.2,3.7 -4.3,3.2 -3.3,-0.8 -5,0.8 -8.4,8.3 -2.2,4.8 -3.4,6.3 -4.9,6.3 -3.1,0 -2.7,-3.4 1.1,-10.7 2.7,-5.1 3.1,-6.6 2.2,-8 -0.7,-1 -1.9,-1.7 -2.8,-1.7 -2.1,0.2 -2,0 0.9,-4.4 1.4,-2 2.5,-4.6 2.5,-5.8 0,-2.4 -2.4,-4.9 -3.9,-4 -0.5,0.4 -2.2,-0.9 -3.8,-2.9 -1.5,-1.9 -3.3,-3.5 -3.9,-3.5 -0.5,0 -2,1.3 -3.2,3 z"
       id="path286"
       style="fill:#0fa7f3;stroke:none;stroke-width:0.1;fill-opacity:1" />
  </g>
  <g
     id="g1425"
     style="fill:#0fa7f3;fill-opacity:1">
    <path
       d="m 221.5,645.4 c -9,3.9 -10,20.7 -1.4,23.2 2,0.6 3.5,1.7 3.7,2.8 0.3,1.6 -0.1,1.7 -4,1 -8.2,-1.4 -8.3,-1.4 -8.3,3.5 0,3.2 0.5,4.6 1.8,5.2 0.9,0.5 2.5,1.3 3.5,1.8 1.3,0.6 1.7,2.1 1.7,6.2 0,5.2 0.2,5.5 3.5,7.1 6.8,3.5 14.2,1.7 19.8,-4.7 3.6,-4 4,-8 1,-9.9 -1.3,-0.8 -2.2,-0.5 -4.2,1.3 -4.6,4.3 -4.9,1.6 -0.4,-3.4 2.5,-2.8 5,-6 5.6,-7.2 1.5,-2.8 1.5,-8 0.1,-8.9 -0.6,-0.3 -3.8,1.2 -7,3.4 -3.2,2.3 -5.9,3.9 -5.9,3.7 0,-0.2 1.1,-2.1 2.5,-4.1 5.7,-8.4 2.2,-19.2 -7,-21.7 -1.1,-0.4 -3.4,0 -5,0.7 z"
       id="path262"
       style="fill:#0fa7f3;stroke:none;stroke-width:0.1;fill-opacity:1" />
    <path
       d="m 279.6,668.1 c -4,3.1 -5.9,7.6 -5.3,12.1 0.4,2.7 0.2,3.8 -0.6,3.5 -1.7,-0.5 -3.7,-4.8 -3.7,-7.8 0,-6.2 -5.8,-5.1 -7.9,1.4 -0.9,2.6 -0.7,4.6 0.9,10.1 1.1,3.9 1.8,7.2 1.6,7.4 -0.3,0.2 -1.5,-1.5 -2.8,-3.7 -2.6,-4.6 -4,-5.1 -6.2,-1.9 -5.3,7.5 4.5,22.8 14.5,22.8 7.6,0 8.7,-1.9 3.9,-6.5 -1.6,-1.6 -2.8,-3 -2.6,-3.2 0.1,-0.2 2.3,0.6 4.7,1.7 5.5,2.4 9,2.5 11.9,0.2 2.9,-2.3 1.9,-4.3 -4.1,-8.8 -2.7,-2 -4.9,-3.7 -4.9,-3.9 0,-0.1 1.9,-0.1 4.3,0.2 5.1,0.5 8.4,-1.1 11.4,-5.6 4.2,-6.3 2,-15.1 -4.6,-18.6 -4.1,-2.1 -7.3,-1.9 -10.5,0.6 z"
       id="path268"
       style="fill:#0fa7f3;stroke:none;stroke-width:0.1;fill-opacity:1" />
    <path
       d="m 191.5,692 c -0.4,0.6 -0.4,4.1 0,7.7 0.5,5.2 0.4,6.4 -0.7,6.1 -0.7,-0.3 -1.7,-1.8 -2.2,-3.4 -2,-6.8 -5.7,-9.9 -11.7,-9.9 -3.4,0 -4.6,0.6 -7,3.3 -5.5,6.2 -3,17.6 4.6,20.8 4.7,1.9 5.9,1.8 9.3,-1.1 3,-2.5 5.2,-3.2 5.2,-1.7 0,0.4 -1.6,3.2 -3.5,6.2 -4.3,6.7 -4.2,8.4 0.7,8.8 2.9,0.3 4.3,-0.3 7.3,-3 3.2,-2.8 3.7,-2.9 3.1,-1.1 -1.2,3.7 2.5,4.8 7.8,2.5 7.9,-3.6 11.1,-13.1 7.4,-22.2 -1.1,-2.8 -2.2,-3.5 -5.8,-4.4 -4,-1 -4.6,-1.5 -5.6,-5.1 -1,-3.6 -1.4,-4 -4.6,-4.3 -2,-0.2 -3.9,0.2 -4.3,0.8 z"
       id="path274"
       style="fill:#0fa7f3;stroke:none;stroke-width:0.1;fill-opacity:1" />
    <path
       d="m 242.2,697 c -6.6,4.7 -6.9,11.9 -0.6,11.2 2.8,-0.3 2.8,-0.3 1,1.7 -2.6,2.9 -8.4,5.4 -11.1,4.7 -2.5,-0.7 -3.5,0.8 -3.5,5.3 0,1.5 -0.9,4.5 -2,6.6 -2,3.8 -2,4.1 -0.3,5 3.5,2 7.3,6.4 7.3,8.5 0,2.9 2.5,3.6 5.7,1.5 3,-2 11.7,-2.5 13.5,-0.7 0.9,0.9 0.3,1.5 -2.6,2.7 -7.1,3 -5.7,7.4 3,9.3 3.1,0.6 6.1,0.9 6.7,0.5 1.3,-0.8 0,-12.1 -1.7,-14.9 -0.9,-1.2 -3,-2.4 -5,-2.8 -4.8,-0.9 -5.3,-2.2 -2.5,-7.2 l 2.3,-4.4 -3.8,-3.9 -3.9,-4 3.8,-4.2 c 3.4,-3.8 3.7,-4.5 3.2,-8.4 -0.8,-5.8 -2.4,-9.5 -4,-9.5 -0.8,0 -3.3,1.3 -5.5,3 z"
       id="path276"
       style="fill:#0fa7f3;stroke:none;stroke-width:0.1;fill-opacity:1" />
    <path
       d="m 216.4,700.1 c -0.8,1.3 0.5,10.8 1.8,13.4 2.8,5.4 6.8,6.7 6.8,2.1 0,-3.5 1.5,-4.9 4.4,-4.2 2.2,0.5 2.6,0.3 2.6,-1.7 0,-3.5 -5.3,-7.8 -12.1,-9.7 -1.7,-0.5 -3.1,-0.5 -3.5,0.1 z"
       id="path278"
       style="fill:#0fa7f3;stroke:none;stroke-width:0.1;fill-opacity:1" />
    <path
       d="m 253.7,715.7 c -1.3,1.2 -0.7,4 1.3,5.8 1.9,1.7 1.9,2 0.4,3.6 -2.2,2.4 -1.1,4.9 2.2,4.9 3.1,0 13,-9.2 11.9,-11 -1.7,-2.8 -13.8,-5.3 -15.8,-3.3 z"
       id="path284"
       style="fill:#0fa7f3;stroke:none;stroke-width:0.1;fill-opacity:1" />
    <path
       d="m 214.9,724.3 c -1.7,1.2 -4.8,4.1 -6.7,6.4 l -3.4,4.3 4.7,2 c 10.7,4.6 16,3.3 13.8,-3.3 -0.6,-1.8 -1.4,-4.8 -1.7,-6.9 -0.8,-4.6 -2.6,-5.3 -6.7,-2.5 z"
       id="path288"
       style="fill:#0fa7f3;stroke:none;stroke-width:0.1;fill-opacity:1" />
    <path
       d="m 271,725.8 c -4.9,2.4 -8.3,9.1 -7.7,15.3 0.5,6.2 3.6,12.3 6.4,12.7 1.8,0.3 2.3,-0.3 2.9,-3.5 l 0.8,-3.8 1.2,5.3 c 1.5,6.5 3.7,10 6.9,10.8 4,1 4.8,-0.3 4.2,-6.7 -0.3,-3.3 -0.3,-5.9 -0.2,-5.9 0.2,0 1.2,1.6 2.1,3.6 2.1,4.5 6.7,7.4 11.5,7.4 9.7,0 14.2,-12.8 7.3,-20.9 -3.6,-4.3 -7.3,-4.8 -14,-1.7 -6.2,2.8 -6.2,3.1 0.8,-5.5 2.1,-2.5 3.8,-4.8 3.8,-5.1 0,-1.2 -7.1,-3 -9.3,-2.4 -1.3,0.3 -4.2,2.2 -6.5,4.1 -4.5,3.9 -5.2,3.9 -2.6,0 1.3,-2 1.4,-2.8 0.4,-4 -1.6,-2 -3.7,-1.9 -8,0.3 z"
       id="path292"
       style="fill:#0fa7f3;stroke:none;stroke-width:0.1;fill-opacity:1" />
    <path
       d="m 226.4,744.6 c -0.8,3.3 0.1,15.3 1.3,16.5 1.3,1.3 7.7,-3.4 10.3,-7.6 1.2,-1.9 2,-4.5 1.8,-5.7 -0.2,-1.9 -0.9,-2.3 -3.9,-2.3 -2.1,0 -4.5,-0.8 -5.6,-1.8 -2.6,-2.3 -3.1,-2.2 -3.9,0.9 z"
       id="path304"
       style="fill:#0fa7f3;stroke:none;stroke-width:0.1;fill-opacity:1" />
    <path
       d="m 202,744.5 c -1.6,2 -0.6,4.5 1.9,4.5 1.1,0 2.3,0.4 2.6,1 1.1,1.7 -4,1.1 -8.9,-1.1 -4.4,-1.9 -4.9,-1.9 -7.1,-0.5 -2.9,1.9 -4.6,4.8 -3.7,6.3 0.4,0.5 3.2,2.4 6.2,4.1 l 5.5,3.2 h -4.6 c -7.7,0 -12.9,5.8 -12.9,14.2 0.1,6.4 4.5,10.8 11,10.8 6.6,0 10.1,-4.1 11,-13 l 0.5,-5.5 2.3,6.1 c 4,11 7.1,8.8 8,-5.8 l 0.5,-8.8 1.6,3.3 c 3.4,6.8 7.8,2.1 6.5,-6.9 -1.2,-8.6 -6.7,-13.4 -15.2,-13.4 -2.3,0 -4.5,0.6 -5.2,1.5 z"
       id="path306"
       style="fill:#0fa7f3;stroke:none;stroke-width:0.1;fill-opacity:1" />
    <path
       d="m 241.5,757.4 c -1.7,0.7 -4.3,2.8 -5.9,4.6 -2.2,2.6 -2.6,4.1 -2.4,7.4 0.3,3.5 0.6,4.1 2.5,4 2,0 2,0.1 -0.7,3.5 -3.8,4.9 -4.4,7.4 -2.5,11.1 0.8,1.6 1.8,3 2.1,3 0.3,0 2.4,-1.6 4.7,-3.5 6.4,-5.5 7.2,-4.6 3.2,3.2 -2.2,4.2 -2.4,5.3 -1.4,8.7 1.7,6.1 5.8,9.6 11.2,9.6 11.3,0 14.5,-12.8 5.6,-22.5 -2.1,-2.3 -3.9,-4.4 -3.9,-4.7 0,-0.2 2.9,-0.2 6.5,0 6.4,0.4 6.5,0.4 6.5,-2 0,-3.7 -3.6,-7.6 -7.5,-8.4 l -3.4,-0.6 2.1,-2.9 c 1.8,-2.4 2,-3.3 1,-5.3 -2.4,-5.3 -11.6,-8 -17.7,-5.2 z"
       id="path312"
       style="fill:#0fa7f3;stroke:none;stroke-width:0.1;fill-opacity:1" />
  </g>
  <g
     id="g1412"
     style="fill:#0fa7f3;fill-opacity:1"
     inkscape:export-xdpi="25"
     inkscape:export-ydpi="25">
    <path
       d="m 502.7,724.2 c -1.4,1.3 -3.7,5.3 -5.2,9 -3.1,7.7 -3,11.5 0.5,19.5 1.3,2.9 2.1,5.6 1.7,5.9 -1.2,1.3 -5.8,-2.7 -10.4,-9.2 -2.6,-3.5 -5.4,-6.4 -6.3,-6.4 -2.1,0 -6,6.9 -6,10.7 0,1.8 2.4,6.7 6.5,13.3 9,14.5 8.8,16.9 -0.5,7.5 -3,-3 -5.7,-5.5 -6.1,-5.5 -1.5,0 -4.1,9 -3.5,12 0.7,3.7 7.9,14.5 10.9,16.4 4.8,3.1 21.9,3.2 25.9,0.2 1,-0.7 2.1,-2.7 2.4,-4.5 0.6,-3.1 0.5,-3.2 -5.5,-5.8 -7.5,-3.2 -6.5,-4.3 4.1,-4.3 10.2,0 12.3,-1.1 15.9,-8.2 1.6,-3.1 2.9,-6.1 2.9,-6.6 0,-0.5 -3.3,-1.2 -7.2,-1.6 -13.8,-1.2 -17.5,-3.5 -8.9,-5.6 6.2,-1.5 11.1,-6.5 15.2,-15.7 l 2.9,-6.3 -4.9,-7.3 c -2.7,-4 -6.1,-7.8 -7.5,-8.5 -1.5,-0.7 -5.3,-1.2 -8.6,-1.2 -4.7,0 -6.4,0.4 -8.3,2.2 z"
       id="path290"
       style="fill:#0fa7f3;stroke:none;stroke-width:0.1;fill-opacity:1" />
    <path
       d="m 409.6,728.5 c -7.7,2.7 -13.9,11.4 -14,19.5 0,3.4 0.9,6.1 3.3,10.3 4.3,7.5 6.2,8.7 13.8,8.7 4.6,0 6.3,0.4 6.3,1.3 0,2.8 -3.9,4.8 -11.2,5.9 -4.1,0.6 -7.8,1.7 -8.5,2.5 -1.6,2 -0.1,6 3.8,10.2 l 3,3.4 6.7,-0.9 c 9.3,-1.1 16.6,-1.1 17.1,0.1 0.2,0.5 -2.5,1.9 -6,3.1 -7.2,2.4 -8.1,4 -5,9.1 2.4,3.8 6,4.8 14.7,3.8 8.3,-0.9 11.9,-3.4 17.1,-12 5.3,-8.8 6.1,-12.4 3.8,-17.6 -3.5,-7.6 -4.6,-7.3 -10.5,2.5 -1.9,3.1 -3.8,5.6 -4.3,5.6 -1.9,0 0.4,-6.7 5.5,-16.8 l 5.3,-10.3 -3,-5.7 c -1.7,-3.1 -3.7,-5.7 -4.5,-5.7 -0.8,0 -3.3,2.9 -5.6,6.5 -6.4,10 -8,11.7 -9.5,10.3 -1,-1 -0.9,-2.5 0.4,-7.3 0.9,-3.3 1.7,-7 1.7,-8.3 0,-3.6 -5.7,-14.3 -9.1,-17.2 -3.4,-2.8 -5.7,-3 -11.3,-1 z"
       id="path294"
       style="fill:#0fa7f3;stroke:none;stroke-width:0.1;fill-opacity:1" />
    <path
       d="m 459.2,793 c -2.9,5.6 -5.2,11.4 -5.2,13.1 0,3.1 2.5,8.9 3.8,8.9 0.4,0 1.8,-1.8 3.2,-4 3,-4.8 4.7,-5 8.5,-1 3.4,3.6 4.9,3.7 6.9,0.8 2.8,-3.9 1.9,-7.2 -4.5,-16.9 -3.4,-5.2 -6.4,-9.7 -6.8,-10.2 -0.4,-0.4 -3.1,3.8 -5.9,9.3 z"
       id="path316"
       style="fill:#0fa7f3;stroke:none;stroke-width:0.1;fill-opacity:1" />
    <path
       d="m 542.5,805.7 c -3.5,0.9 -5.2,3.1 -8.9,12.1 -4.5,10.9 -7.4,15.8 -8.7,14.5 -0.6,-0.6 -0.1,-3.6 1.2,-8 2.7,-8.8 2.2,-10.3 -2.9,-10.3 -5.1,0 -7.5,2.7 -10.7,12 -3.2,9.3 -3.1,13.4 0.1,21.6 3.7,9.1 7.9,13.4 13.2,13.4 2.2,0 4.4,-0.4 4.7,-1 0.3,-0.5 -0.8,-4.2 -2.5,-8.2 -3.2,-7.6 -3.6,-9.8 -2.1,-9.8 1.3,0 5,5 9.9,13.5 2.2,3.9 4.8,7.8 5.9,8.7 3.6,3.3 13.3,3.5 13.3,0.3 0,-0.7 -1.8,-5.1 -4,-9.6 -6.2,-12.8 -5.1,-16.7 2.5,-8.5 4.7,5.1 10.4,7.1 17.9,6.2 5.9,-0.7 7.7,-2.1 11,-9.2 3.5,-7.4 3.4,-12.7 -0.3,-18.5 -4.9,-7.7 -7.5,-9.4 -13.6,-9.2 -8.2,0.3 -11.9,2.3 -16,8.8 -2.5,3.8 -4.2,5.5 -5.3,5.3 -2.3,-0.5 -1.9,-3.4 2.3,-14.6 1.9,-5.1 3.5,-9.5 3.5,-9.7 0,-0.6 -7.8,-0.4 -10.5,0.2 z"
       id="path326"
       style="fill:#0fa7f3;stroke:none;stroke-width:0.1;fill-opacity:1" />
    <path
       d="m 491.3,808.8 c -3.8,0.4 -7.5,4.5 -7.1,7.6 0.2,1.2 1.7,2.8 3.7,3.7 4.5,2.1 5.2,3.8 4.2,9.5 -0.5,2.7 -0.7,5.2 -0.5,5.6 0.2,0.4 2.4,0 4.8,-0.8 3.7,-1.3 4.8,-2.3 6.7,-6.2 3.1,-6.7 8,-18.5 7.7,-18.8 -0.5,-0.4 -16.3,-0.9 -19.5,-0.6 z"
       id="path330"
       style="fill:#0fa7f3;stroke:none;stroke-width:0.1;fill-opacity:1" />
    <path
       d="m 426.6,813.8 c -2.2,0.4 -4.1,1.2 -4.3,1.7 -0.5,1.5 7.1,16.6 9.7,19.3 2.7,2.9 6.7,4.4 9.1,3.7 2.4,-0.8 2.4,-1.2 -0.2,-7 -1.1,-2.5 -1.8,-5 -1.4,-5.3 0.4,-0.4 2.5,-1.6 4.8,-2.7 4.8,-2.3 5.8,-5.2 2.8,-7.9 -2.1,-1.9 -13.6,-2.9 -20.5,-1.8 z"
       id="path332"
       style="fill:#0fa7f3;stroke:none;stroke-width:0.1;fill-opacity:1" />
    <path
       d="m 463.7,816.8 c -2.6,6.6 -6.1,9.9 -11.2,10.6 -2.4,0.4 -4.7,1 -4.9,1.4 -0.2,0.4 0.2,3.4 1,6.7 1,4.1 1.2,8.4 0.8,13.2 l -0.6,7.3 h 5.5 c 5.9,0 5.5,-0.3 11.6,7.9 2.3,3.1 4.6,2.3 6.4,-2.1 2,-4.7 3.8,-5.9 10.1,-6.5 6.5,-0.7 6.6,-0.8 3.5,-9.9 -2,-5.9 -2,-6.4 -0.5,-11.7 2.4,-8.3 2.4,-8.4 -4.2,-9 -7.2,-0.6 -9.1,-1.7 -12.6,-7.3 -1.5,-2.4 -2.9,-4.4 -3.1,-4.4 -0.1,0 -1,1.7 -1.8,3.8 z"
       id="path334"
       style="fill:#0fa7f3;stroke:none;stroke-width:0.1;fill-opacity:1" />
    <path
       d="m 382.3,816.7 c -1.3,0.2 -2.3,0.8 -2.3,1.2 0,0.5 1.8,4.9 4,9.9 3.9,8.8 4.9,13.2 3.1,13.2 -0.5,0 -3.3,-2.7 -6.2,-6 -4.9,-5.7 -5.4,-6 -9.8,-6 -10.4,0 -16.3,4.2 -19.6,13.9 -2.1,6.2 -1.9,8.6 1.2,14.3 3.4,6.3 6.6,7.9 16.8,8.5 9.1,0.6 9,0.6 13.5,-7.6 2.7,-4.9 6,-6.7 6,-3.2 0,1 -1.6,6.6 -3.5,12.2 -1.9,5.7 -3.5,10.5 -3.5,10.7 0,0.5 10.4,-1 12.8,-1.9 2.3,-0.9 4.8,-5.7 8.7,-16.2 2,-5.7 6.4,-11.3 6.5,-8.4 0,1 -0.8,4.7 -1.7,8.1 -1.9,7.3 -1.4,9.6 2.1,9.6 6.1,0 15,-13.6 15.1,-23 0,-5.2 -5.1,-16.9 -9.2,-21.3 -2.1,-2.1 -3.6,-2.7 -7,-2.7 -3.8,0 -4.3,0.3 -4.3,2.2 0,1.3 0.9,4.3 2,6.7 4.4,9.5 1.6,10.8 -3.9,1.8 -9.1,-14.6 -9.1,-14.6 -12.9,-15.7 -3.8,-1 -4.1,-1 -7.9,-0.3 z"
       id="path340"
       style="fill:#0fa7f3;stroke:none;stroke-width:0.1;fill-opacity:1" />
    <path
       d="m 493.3,845.5 c -0.3,0.9 0.2,3.6 1.2,6 1.9,5 1.4,6.5 -2,6.5 -4.1,0 -5.5,1.1 -5.5,4.2 0,2.4 0.7,3.2 4.3,4.8 4.7,2.2 15.5,2.7 18.8,1 1,-0.6 1.9,-2.1 1.9,-3.3 -0.1,-2.9 -3.3,-9.9 -6.6,-14.3 -4.3,-5.5 -10.8,-8.2 -12.1,-4.9 z"
       id="path352"
       style="fill:#0fa7f3;stroke:none;stroke-width:0.1;fill-opacity:1" />
    <path
       d="m 434.2,850.5 c -3.5,4.3 -8.9,19.3 -7.9,22 0.7,1.6 1.5,1.7 7.5,1.1 13.6,-1.4 18.7,-4 17.5,-8.7 -0.6,-2.3 -1.7,-3 -5.7,-3.9 -3.1,-0.6 -3.1,-0.7 -3.1,-7.1 0,-6.2 -0.1,-6.4 -2.6,-6.7 -2,-0.2 -3.4,0.5 -5.7,3.3 z"
       id="path356"
       style="fill:#0fa7f3;stroke:none;stroke-width:0.1;fill-opacity:1" />
    <path
       d="m 472.9,872.2 -3.9,4.3 -3.1,-3.3 c -3.5,-3.9 -6,-3.8 -7.3,0.1 -0.8,2 -0.6,3.9 0.6,7.2 2.2,5.7 8.4,15.4 10.4,16.2 2.3,0.9 4.8,-2.7 8.4,-11.9 3.2,-8.2 3.8,-13.6 1.8,-15.6 -1.8,-1.8 -2.6,-1.5 -6.9,3 z"
       id="path358"
       style="fill:#0fa7f3;stroke:none;stroke-width:0.1;fill-opacity:1" />
    <path
       d="m 499.9,877.3 c -7.8,1.8 -10,3.5 -15.4,12.1 -5.8,9.3 -6.7,13.7 -3.5,17.1 3.4,3.6 5.4,3.1 9.5,-2.5 6.7,-9.2 7.5,-5.5 1.4,7.1 -2.3,4.6 -4.5,9.7 -5,11.3 -1.1,3.8 0.4,9.7 3.5,13.2 l 2.3,2.7 1.7,-2.4 c 0.9,-1.3 3.7,-5.9 6.2,-10.2 4.2,-7.2 6.6,-9.8 8.1,-8.4 0.3,0.3 -0.5,3.9 -1.7,7.9 -3,9.7 -3,9.8 -1.3,13.8 2.4,5.9 6.6,11.2 10,12.7 1.8,0.7 5.7,1.3 8.6,1.3 6.7,0 10,-2.3 13.3,-9.4 3.3,-7.1 3.1,-12.6 -0.5,-19 -4.6,-8 -7.2,-10 -12.8,-9.7 -5.6,0.2 -8.3,-0.6 -8.3,-2.3 0,-2.4 2.4,-3.4 10.5,-4.5 10.7,-1.5 11.5,-2.5 8,-8.9 -3.6,-6.6 -5.5,-7.2 -17.7,-5.9 -10.6,1.1 -13.8,0.6 -11.8,-1.8 0.7,-0.8 2.8,-1.7 4.9,-2 7.6,-1.3 8.1,-1.5 8.1,-3.8 0,-1.3 -1.2,-3.7 -2.7,-5.5 -3.4,-3.9 -7.3,-4.7 -15.4,-2.9 z"
       id="path360"
       style="fill:#0fa7f3;stroke:none;stroke-width:0.1;fill-opacity:1" />
    <path
       d="m 432.8,881 c -2.6,0.3 -5.6,1.4 -6.7,2.4 -2.2,2 -4.6,8 -3.7,9.4 0.3,0.5 3.6,1.2 7.2,1.5 13.5,1.3 9.6,4.5 -6.7,5.6 -6.6,0.5 -11.4,1.3 -12.4,2.1 -4.3,3.6 -6.1,12.2 -2.7,13.5 0.9,0.3 5.4,0.9 9.9,1.2 12.7,0.9 14.1,3.5 2.9,5.3 -3.2,0.5 -6.5,1.5 -7.4,2.2 -2.4,2 -8.2,15.3 -8.2,18.8 0,3.9 4,11 8.6,15 3.1,2.7 4.1,3 10.3,3 7.8,0 9.6,-1.3 13,-9.2 4.4,-10.4 4.5,-12.3 1.1,-19.5 -5.3,-11.4 -0.5,-10.7 8.1,1 5.6,7.6 7.2,8.1 10,2.7 3.5,-6.4 2.6,-10.7 -4.2,-21.1 -3.4,-5.1 -6.3,-9.9 -6.6,-10.6 -1.1,-2.7 2,-1.1 7.1,3.7 2.9,2.8 5.6,5 5.9,5 1,0 4.7,-7.7 4.7,-9.7 0,-3 -11.7,-19.5 -14.8,-20.9 -3,-1.2 -10.6,-1.9 -15.4,-1.4 z"
       id="path366"
       style="fill:#0fa7f3;stroke:none;stroke-width:0.1;fill-opacity:1" />
  </g>
  <g
     id="g1457"
     style="fill:#0fa7f3;fill-opacity:1">
    <path
       d="m 847.3,705 c -6.7,4.1 -8.2,11.9 -3.2,16.9 5.3,5.3 12.7,3 14.8,-4.4 1.2,-4.6 -0.2,-9.8 -3.6,-12.5 -3.2,-2.5 -4,-2.5 -8,0 z"
       id="path280"
       style="fill:#0fa7f3;stroke:none;stroke-width:0.1;fill-opacity:1" />
    <path
       d="m 966.2,710.3 c -2.8,1.6 -6.2,7 -6.2,9.8 0,2.9 3.6,7.6 7.1,9.4 6.1,3.2 11.9,-1.8 11.9,-10.3 0,-7.6 -6.7,-12.2 -12.8,-8.9 z"
       id="path282"
       style="fill:#0fa7f3;stroke:none;stroke-width:0.1;fill-opacity:1" />
    <path
       d="m 864.2,732.5 c -2.5,2.2 -5.3,3.7 -8,4.1 -2.4,0.4 -4.5,1.2 -4.9,1.8 -1.3,2 -0.2,7 1.9,9.3 2.4,2.6 8.7,3.1 12.5,1 3,-1.6 7,-7.1 8.4,-11.5 1.1,-3.3 1,-3.7 -1.5,-5.9 -1.5,-1.3 -3.1,-2.3 -3.7,-2.3 -0.5,0 -2.6,1.6 -4.7,3.5 z"
       id="path296"
       style="fill:#0fa7f3;stroke:none;stroke-width:0.1;fill-opacity:1" />
    <path
       d="m 948.2,733 c -1.2,0.5 -2.5,1.7 -2.9,2.6 -0.7,1.8 3.2,10.6 6.5,14.6 2.1,2.5 3,2.8 8.5,2.8 7.9,0 8.9,-0.7 8.5,-5.6 -0.3,-3.6 -0.6,-4 -4.3,-5.2 -2.4,-0.8 -5.7,-3.1 -8.1,-5.8 -4.3,-4.7 -4.6,-4.8 -8.2,-3.4 z"
       id="path298"
       style="fill:#0fa7f3;stroke:none;stroke-width:0.1;fill-opacity:1" />
    <path
       d="m 879.3,740.2 c -1.1,1.3 -3.1,4.3 -4.5,6.8 -4.2,7.4 -5.9,8.4 -15,9.1 -5.3,0.4 -8.3,1 -8.9,2 -1.6,2.5 -1,6.8 1,7.9 4.1,2.1 23,0.3 26.1,-2.5 1.9,-1.7 9.2,-15.2 10.4,-19.2 0.6,-1.8 0.1,-2.6 -2.6,-4.3 -4.1,-2.5 -4,-2.5 -6.5,0.2 z"
       id="path300"
       style="fill:#0fa7f3;stroke:none;stroke-width:0.1;fill-opacity:1" />
    <path
       d="m 933.8,742.8 c -1.6,0.9 -2.8,2.6 -2.8,3.7 0,3.2 8.3,18.6 11.1,20.7 1.3,0.9 5.1,2.4 8.4,3.3 11.6,2.9 18.5,1.3 18.5,-4.4 0,-4.5 -3,-6.3 -11.4,-7 -8.7,-0.7 -10.4,-1.9 -13.6,-9.4 -2.4,-5.6 -4.7,-8.7 -6.4,-8.7 -0.6,0 -2.3,0.8 -3.8,1.8 z"
       id="path302"
       style="fill:#0fa7f3;stroke:none;stroke-width:0.1;fill-opacity:1" />
    <path
       d="m 893.6,750.6 c -1.4,1.6 -4.5,6.3 -6.8,10.6 -8.5,15.5 -7.1,14.2 -13.6,13.4 -22.9,-2.5 -23.2,-2.5 -23.2,5 0,6.6 0.9,6.9 19.8,6.9 h 16.4 l 6.4,-12.6 c 7.2,-14.3 9.4,-21.1 7.8,-23.7 -1.7,-2.7 -4,-2.5 -6.8,0.4 z"
       id="path308"
       style="fill:#0fa7f3;stroke:none;stroke-width:0.1;fill-opacity:1" />
    <path
       d="m 919.8,750.6 c -1.4,0.7 -2.9,2.1 -3.2,3.1 -0.5,1.1 2.1,7.4 7.1,17.9 l 7.8,16.1 4.4,0.7 c 7.8,1.1 28.6,0.7 29.9,-0.6 1.6,-1.6 1.5,-6.3 0,-7.6 -0.7,-0.5 -5.6,-1.3 -10.8,-1.7 -5.2,-0.3 -11,-1.4 -12.8,-2.2 -3.8,-1.8 -7.4,-6.7 -13,-17.9 -2.3,-4.5 -4.7,-8.4 -5.4,-8.7 -0.8,-0.2 -2.5,0.1 -4,0.9 z"
       id="path310"
       style="fill:#0fa7f3;stroke:none;stroke-width:0.1;fill-opacity:1" />
    <path
       d="m 903.5,773.2 c -4.4,10.9 -5,13.1 -5,19.8 0,6.3 0.6,9.2 3.9,18 2.1,5.8 4.2,10.9 4.6,11.3 0.4,0.5 2.2,-2.7 4,-7 8.7,-20.6 8.9,-24 2.8,-42 -2.3,-6.7 -4.4,-12.3 -4.7,-12.3 -0.3,0 -2.8,5.5 -5.6,12.2 z"
       id="path314"
       style="fill:#0fa7f3;stroke:none;stroke-width:0.1;fill-opacity:1" />
    <path
       d="m 852,794.7 c 0,0.9 12.9,21.7 14.8,23.9 4.3,5.1 13.9,8.3 25,8.4 5.1,0 5.3,-0.1 4.7,-2.3 -1.2,-3.8 -9.8,-17.8 -13.5,-21.8 -3.4,-3.9 -3.7,-3.9 -17.2,-6.3 -7.6,-1.3 -13.8,-2.1 -13.8,-1.9 z"
       id="path318"
       style="fill:#0fa7f3;stroke:none;stroke-width:0.1;fill-opacity:1" />
    <path
       d="m 837.1,799.4 c -1.6,1.9 -0.4,6.6 5.1,19.6 2.6,6.3 4.8,11.8 4.8,12.3 0,0.4 -3.1,6.5 -7,13.5 -3.8,7 -7,13.7 -7,14.9 0,1.5 1,2.4 3.3,3.3 3.1,1.1 3.4,0.9 6.7,-2.8 1.9,-2.1 6.6,-9.4 10.3,-16.2 l 6.8,-12.2 -2.2,-5.2 c -3.8,-8.9 -9.6,-20 -12.8,-24.4 -3.2,-4.3 -5.9,-5.3 -8,-2.8 z"
       id="path320"
       style="fill:#0fa7f3;stroke:none;stroke-width:0.1;fill-opacity:1" />
    <path
       d="m 942.2,801.1 c -2.3,0.4 -5.6,1.7 -7.2,2.9 -6.3,4.5 -18.7,21 -17.4,23.1 0.5,0.8 4,1 11.3,0.7 14.1,-0.7 17,-2.2 25,-12.8 6,-8.1 7.9,-11.9 6.6,-13.9 -0.7,-1.3 -12,-1.3 -18.3,0 z"
       id="path322"
       style="fill:#0fa7f3;stroke:none;stroke-width:0.1;fill-opacity:1" />
    <path
       d="m 971.5,805.7 c -2.6,2.9 -9.1,13.7 -14,23.2 -2,4 -2.5,6.2 -2.1,8.5 1,4.6 14.4,31.6 16.1,32.2 2.5,1 6.5,-2.3 6.5,-5.3 0,-1.5 -2.5,-8.3 -5.7,-15.1 l -5.6,-12.4 6.7,-13.6 c 3.6,-7.5 6.6,-14.4 6.6,-15.3 0,-1.8 -3.1,-4.9 -4.8,-4.9 -0.6,0 -2.3,1.2 -3.7,2.7 z"
       id="path324"
       style="fill:#0fa7f3;stroke:none;stroke-width:0.1;fill-opacity:1" />
    <path
       d="m 823,809 c -2.3,2.3 -2.1,3.8 1.7,13.4 1.3,3.3 2.3,6.9 2.3,7.9 0,1.1 -1.9,5.8 -4.2,10.4 l -4.3,8.4 3.2,2.9 c 1.9,1.7 3.9,2.7 4.8,2.4 1.6,-0.7 6.6,-8.5 11.3,-17.9 l 3,-6 -4.5,-10 c -2.4,-5.4 -5.1,-10.7 -6,-11.7 -2.1,-2.4 -4.8,-2.3 -7.3,0.2 z"
       id="path328"
       style="fill:#0fa7f3;stroke:none;stroke-width:0.1;fill-opacity:1" />
    <path
       d="m 980.1,823.1 c -6.1,12 -6.3,15.2 -2.2,24.4 5.6,12.3 8.1,14.4 13,10.6 l 2.4,-1.8 -3.4,-9.6 -3.3,-9.5 3.7,-9.1 c 2,-5 3.7,-9.5 3.7,-10 0,-1.8 -4.3,-5.1 -6.6,-5.1 -1.9,0 -3.2,1.8 -7.3,10.1 z"
       id="path336"
       style="fill:#0fa7f3;stroke:none;stroke-width:0.1;fill-opacity:1" />
    <path
       d="m 808.3,817 -3.2,1.9 1.4,4.2 c 1.9,5.3 1.9,7.7 -0.1,12.5 l -1.6,3.8 3.1,2.8 c 3.3,3 3.9,3.2 5.8,2 1.8,-1.1 7.3,-12.1 7.3,-14.6 0,-1.1 -1.3,-4.9 -3,-8.4 -3.2,-6.9 -4.5,-7.4 -9.7,-4.2 z"
       id="path338"
       style="fill:#0fa7f3;stroke:none;stroke-width:0.1;fill-opacity:1" />
    <path
       d="m 782.3,819.5 c -3.2,2.2 -4.8,8.9 -3.4,13.7 1.3,4.3 3.5,5.8 8.6,5.8 4.5,0 9.5,-4.5 9.5,-8.5 0,-4.3 -2.7,-9.3 -5.9,-10.9 -3.8,-2 -6.1,-2 -8.8,-0.1 z"
       id="path342"
       style="fill:#0fa7f3;stroke:none;stroke-width:0.1;fill-opacity:1" />
    <path
       d="m 998.7,826 c -1.8,1.6 -4.2,4.7 -5.2,6.9 -1.7,4 -1.7,4.1 0.5,9.3 4.4,10.5 6.5,11.9 11.6,7.5 l 2.7,-2.4 -1.8,-5.1 c -1.8,-4.9 -1.8,-5.4 -0.2,-8.7 2.2,-4.7 2.2,-8.2 -0.2,-9.5 -2.9,-1.5 -3.7,-1.3 -7.4,2 z"
       id="path344"
       style="fill:#0fa7f3;stroke:none;stroke-width:0.1;fill-opacity:1" />
    <path
       d="m 1022.8,828 c -6.6,5.1 -7.3,14.5 -1.5,18 7.6,4.7 14.7,0.5 14.7,-8.7 0,-2.8 -0.8,-4.4 -3.9,-7.4 -4.4,-4.4 -5.8,-4.7 -9.3,-1.9 z"
       id="path346"
       style="fill:#0fa7f3;stroke:none;stroke-width:0.1;fill-opacity:1" />
    <path
       d="m 891,838 c -1.9,0.5 -6.9,1.2 -11,1.6 -9.1,0.8 -11.8,2.1 -16.3,7.6 -4.5,5.5 -10.2,14.6 -11.2,17.7 l -0.7,2.4 9.8,-0.6 c 13.6,-0.8 17,-2 22.5,-7.7 5.6,-5.7 13.3,-18.4 12.5,-20.5 -0.6,-1.7 -0.6,-1.7 -5.6,-0.5 z"
       id="path348"
       style="fill:#0fa7f3;stroke:none;stroke-width:0.1;fill-opacity:1" />
    <path
       d="m 916.8,840.5 c -0.9,0.9 3.2,9 8.9,17.6 2.9,4.5 5.5,7.3 8,8.4 4.2,2 26,6.1 27.1,5.1 0.9,-1 -4.4,-10.5 -10.3,-18.4 -6.9,-9.2 -12.4,-12.1 -24.3,-12.9 -4.8,-0.3 -9,-0.2 -9.4,0.2 z"
       id="path350"
       style="fill:#0fa7f3;stroke:none;stroke-width:0.1;fill-opacity:1" />
    <path
       d="m 901.6,855 c -6.8,14.8 -7.4,17.4 -5.2,26.2 2.2,9.3 6.8,21.9 8.1,22.1 1.2,0.2 5.5,-8.2 9.6,-18.8 2.9,-7.3 3.1,-8.4 2.1,-13 -1,-5.3 -7.9,-24.4 -9.1,-25.8 -0.4,-0.4 -2.9,3.8 -5.5,9.3 z"
       id="path354"
       style="fill:#0fa7f3;stroke:none;stroke-width:0.1;fill-opacity:1" />
    <path
       d="m 850.7,876.8 c -3,0.3 -4,0.9 -4.8,3 -1.5,3.9 0.3,6.9 4.8,8.1 2.1,0.5 8.8,1.3 14.8,1.6 l 11,0.7 4.5,10.6 c 6.1,14.6 12.4,20.7 14.5,14.1 1.2,-3.7 -0.6,-9.7 -7,-22.7 l -6.3,-12.9 -9.8,-1.2 c -13.1,-1.4 -17.2,-1.7 -21.7,-1.3 z"
       id="path362"
       style="fill:#0fa7f3;stroke:none;stroke-width:0.1;fill-opacity:1" />
    <path
       d="m 931,880.3 c -2.4,1.2 -8.2,10.1 -16.8,25.8 l -4.2,7.6 3.6,2.6 c 2,1.4 4.3,2.3 5,2 1.4,-0.5 11.1,-15.6 14.1,-21.9 l 1.7,-3.4 h 11 c 6.1,0 12.8,-0.5 14.9,-1.1 3.3,-0.9 3.7,-1.3 3.7,-4.3 0,-1.9 -0.6,-3.8 -1.2,-4.4 -0.7,-0.5 -7,-1.5 -13.9,-2.1 -7,-0.6 -13.3,-1.3 -14,-1.6 -0.8,-0.3 -2.5,0.1 -3.9,0.8 z"
       id="path364"
       style="fill:#0fa7f3;stroke:none;stroke-width:0.1;fill-opacity:1" />
    <path
       d="m 851.5,895.7 c -5,0.5 -6.5,1.8 -6.5,5.3 0,3.8 1.7,4.9 8.9,5.7 8.5,0.8 11.8,3.3 16.1,11.8 3.4,6.7 3.7,7 6.9,6.8 1.8,0 4,-0.8 4.9,-1.7 1.4,-1.3 1.3,-2.1 -0.7,-7.4 -1.1,-3.3 -3.7,-9.4 -5.6,-13.6 l -3.6,-7.6 -8.2,0.2 c -4.5,0.1 -10,0.3 -12.2,0.5 z"
       id="path368"
       style="fill:#0fa7f3;stroke:none;stroke-width:0.1;fill-opacity:1" />
    <path
       d="m 942.8,898.7 c -4.9,0.6 -7.5,3.4 -13.4,14.7 -5.4,10.5 -5.4,12.8 0.3,13.4 3.9,0.4 8.4,-3.3 11.1,-9.1 1.9,-4.1 2.4,-4.5 6.8,-5.1 2.6,-0.3 6.8,-0.6 9.3,-0.6 2.6,0 5.2,-0.5 5.9,-1.2 1.6,-1.6 1.5,-9.3 -0.2,-10.7 -1.4,-1.2 -14,-2.1 -19.8,-1.4 z"
       id="path370"
       style="fill:#0fa7f3;stroke:none;stroke-width:0.1;fill-opacity:1" />
    <path
       d="m 846.6,914.6 c -1.9,1.8 -2.1,8.7 -0.3,10.1 0.6,0.6 2.7,1.3 4.6,1.7 1.8,0.3 5.1,2.2 7.2,4.1 4.2,3.8 6.9,4.4 9.2,2 1.2,-1.2 1.3,-2.2 0.5,-4.9 -3,-9.8 -16.3,-18 -21.2,-13 z"
       id="path372"
       style="fill:#0fa7f3;stroke:none;stroke-width:0.1;fill-opacity:1" />
    <path
       d="m 951.6,918.4 c -6.3,1.8 -12,9 -11.4,14.3 0.2,1.4 1.5,3.5 3,4.6 l 2.7,2 4.9,-5.1 c 3.7,-4 5.5,-5.2 7.8,-5.2 3.7,0 5.4,-1.6 5.4,-5 0,-5 -5.5,-7.5 -12.4,-5.6 z"
       id="path374"
       style="fill:#0fa7f3;stroke:none;stroke-width:0.1;fill-opacity:1" />
    <path
       d="m 839.4,938.4 c -6.3,2.8 -6.7,12.6 -0.7,18.2 3.6,3.3 6.5,3 10.1,-1.1 5.8,-6.5 4.9,-15 -1.9,-17.4 -3.9,-1.3 -3.7,-1.3 -7.5,0.3 z"
       id="path376"
       style="fill:#0fa7f3;stroke:none;stroke-width:0.1;fill-opacity:1" />
    <path
       d="m 957.6,944.1 c -2.1,2.4 -2.6,4.1 -2.6,8.4 0,4.6 0.4,5.6 2.8,7.5 2.1,1.7 3.6,2.1 6.5,1.7 5.7,-0.8 8.7,-4 8.7,-9.5 0,-3.7 -0.6,-5 -3.4,-7.8 -4.5,-4.5 -8.4,-4.6 -12,-0.3 z"
       id="path378"
       style="fill:#0fa7f3;stroke:none;stroke-width:0.1;fill-opacity:1" />
  </g>
</svg>
